 <svg version="1.0" xmlns="http://www.w3.org/2000/svg" width="700.000000pt" height="696.000000pt" viewBox="0 0 700.000000 696.000000" preserveAspectRatio="xMidYMid meet">
<metadata>

</metadata>
<g transform="translate(0.000000,696.000000) scale(0.100000,-0.100000)" fill="#000000" stroke="none">
<path d="M2998 6864 c-19 -19 -431 -76 -713 -99 -233 -19 -347 -32 -445 -50
-41 -8 -151 -22 -245 -30 -93 -9 -196 -22 -228 -30 -32 -8 -67 -15 -78 -15
-10 0 -19 -4 -19 -10 0 -14 6 -13 102 10 46 10 144 24 218 30 74 6 182 19 240
30 104 19 197 29 440 50 263 23 525 57 662 85 38 8 84 15 101 15 24 0 28 3 17
10 -17 11 -44 13 -52 4z"></path>
<path d="M3120 6818 c60 -34 101 -63 172 -121 43 -35 54 -39 118 -42 61 -4 88
-13 188 -60 64 -31 124 -63 134 -72 10 -9 20 -14 23 -11 3 3 -7 14 -22 24
l-28 19 70 5 c106 8 375 -8 508 -28 137 -22 119 -10 286 -201 309 -355 326
-385 417 -741 58 -230 90 -296 205 -424 23 -25 32 -54 59 -200 35 -187 38
-201 39 -171 0 11 -8 70 -19 130 -11 61 -24 134 -30 163 -7 42 -19 64 -59 110
-27 31 -48 58 -46 60 6 6 82 -56 123 -98 53 -56 62 -87 69 -245 4 -102 10
-148 19 -156 11 -9 12 -6 5 17 -5 16 -12 97 -15 180 l-6 151 -45 46 c-50 50
-114 103 -157 130 -25 15 -75 94 -66 102 3 4 67 -34 211 -127 44 -27 85 -65
115 -103 25 -33 62 -78 82 -100 20 -22 45 -55 55 -73 11 -17 23 -32 27 -32 10
0 10 27 1 32 -10 4 -94 103 -158 185 -44 57 -69 76 -195 152 -91 55 -150 97
-157 112 -7 14 -34 114 -62 222 -53 211 -84 283 -179 417 -38 52 -175 217
-252 302 -8 9 -40 46 -70 82 -30 35 -61 67 -68 70 -44 19 -340 47 -533 51
l-217 4 -79 40 c-58 29 -102 43 -164 52 -49 7 -92 19 -104 29 -42 36 -221 150
-235 150 -8 0 10 -14 40 -32z"></path>
<path d="M3371 6606 c11 -19 27 -40 35 -47 9 -7 3 8 -13 34 -15 25 -31 47 -35
47 -4 0 2 -15 13 -34z"></path>
<path d="M1680 6613 c-409 -52 -495 -64 -539 -79 -25 -8 -47 -14 -50 -14 -8 1
42 40 51 40 9 0 83 50 74 50 -15 0 -72 -34 -204 -122 -75 -50 -152 -100 -169
-112 -18 -11 -33 -25 -33 -30 0 -5 -24 -41 -53 -80 -75 -100 -76 -102 -87
-233 -18 -223 -15 -263 34 -419 62 -197 84 -257 124 -354 33 -79 43 -93 147
-195 92 -90 131 -121 216 -168 57 -32 133 -75 167 -97 35 -21 69 -41 75 -43 7
-2 7 -8 1 -18 -8 -12 -25 -80 -50 -201 -11 -48 -25 -52 -125 -36 l-90 15 -29
-57 c-23 -46 -37 -60 -68 -73 -47 -19 -57 -31 -66 -80 -4 -21 -16 -47 -27 -58
-17 -17 -18 -28 -13 -102 8 -101 -4 -146 -46 -171 -17 -9 -55 -41 -84 -70 -47
-46 -55 -58 -60 -102 -3 -27 -10 -85 -15 -129 -10 -91 -31 -161 -91 -308 -41
-100 -43 -103 -103 -142 -53 -34 -62 -45 -63 -70 -2 -80 -3 -83 -35 -94 -18
-6 -51 -11 -74 -11 -52 0 -49 6 -86 -173 -38 -190 -112 -343 -184 -385 -22
-14 -35 -31 -40 -53 -4 -18 -25 -80 -47 -137 -21 -58 -38 -117 -36 -131 2 -19
14 3 42 79 58 156 83 207 124 249 61 63 127 209 152 334 12 60 30 128 40 153
17 38 23 44 50 44 16 0 30 -2 30 -5 0 -2 -16 -30 -36 -61 -26 -41 -33 -59 -25
-67 8 -8 11 -7 11 3 0 38 67 123 132 167 53 36 80 65 129 137 64 94 113 159
159 211 37 41 74 141 55 149 -10 3 -15 -9 -20 -46 -5 -36 -16 -61 -39 -87 -49
-55 -127 -159 -176 -231 -43 -64 -86 -109 -105 -110 -6 0 -9 17 -7 40 4 36 11
45 62 83 54 39 62 49 96 132 64 157 85 228 95 320 8 82 25 128 36 99 2 -6 11
-20 19 -30 14 -17 15 -17 10 -1 -3 9 -1 17 3 17 5 0 11 -5 13 -12 2 -6 10 -8
16 -4 18 11 14 26 -5 19 -14 -5 -15 -1 -10 27 4 18 7 41 7 52 0 10 4 17 9 14
5 -4 7 3 4 14 -3 11 -1 20 5 20 5 0 27 27 48 61 l39 61 8 -89 c4 -48 6 -105 3
-126 -2 -20 0 -35 4 -32 4 3 11 -32 15 -78 4 -45 14 -98 22 -117 34 -78 73
-186 73 -202 0 -28 -60 -66 -100 -63 -19 1 -25 0 -12 -2 12 -2 22 -9 22 -14 0
-6 9 -7 20 -4 11 3 20 2 20 -4 0 -5 -33 -58 -73 -118 -40 -59 -94 -152 -120
-205 -42 -85 -54 -100 -95 -126 -26 -16 -64 -35 -85 -43 -20 -7 -37 -16 -37
-20 0 -11 80 23 126 53 44 28 71 61 98 118 30 63 41 80 48 80 4 0 5 6 3 13 -3
6 10 35 30 62 34 49 138 204 162 241 21 34 15 -8 -12 -80 -14 -37 -25 -76 -25
-87 0 -23 -67 -90 -113 -115 -16 -9 -26 -18 -23 -21 3 -3 17 2 32 12 23 15 26
15 21 2 -12 -32 25 -4 73 56 32 40 46 64 38 68 -8 5 -6 26 8 73 10 36 21 66
25 66 3 0 10 -15 16 -32 6 -18 29 -78 51 -133 23 -55 43 -112 46 -126 4 -18
21 -34 56 -53 28 -15 48 -32 45 -37 -3 -5 1 -6 9 -3 16 6 156 -64 156 -79 0
-23 -33 -75 -54 -85 -21 -9 -24 -18 -28 -88 l-4 -77 -68 -63 c-38 -35 -64 -64
-59 -64 5 0 33 22 61 50 50 49 72 61 72 40 0 -5 4 -10 9 -10 5 0 7 14 4 31 -2
18 -1 35 5 38 22 15 29 44 19 77 -9 29 -7 36 18 65 15 18 31 43 36 56 10 27
22 29 39 8 10 -12 5 -26 -29 -80 -23 -36 -39 -70 -36 -75 11 -17 -15 -119 -33
-132 -25 -19 -82 -95 -82 -109 0 -7 13 6 29 28 16 22 41 49 55 60 14 12 26 30
26 41 0 23 22 42 28 24 2 -7 7 -12 12 -12 4 0 1 22 -7 50 -14 50 -14 50 19
110 18 33 36 60 40 60 5 0 9 -44 9 -97 1 -54 3 -124 5 -155 2 -39 -2 -60 -11
-68 -10 -8 -12 -18 -6 -29 4 -9 4 -59 -1 -111 -5 -52 -9 -105 -9 -117 0 -13
-5 -23 -11 -23 -8 0 -9 -3 -2 -10 11 -11 8 -54 -23 -323 l-17 -158 -53 -40
c-80 -62 -160 -90 -328 -113 -109 -16 -175 -38 -175 -61 0 -11 8 -10 42 5 24
11 52 20 64 20 19 0 20 -5 16 -57 -3 -53 -7 -61 -45 -96 -23 -21 -54 -44 -69
-52 -61 -33 -88 -108 -129 -355 -11 -69 -22 -132 -25 -140 -2 -9 -48 -32 -109
-54 -58 -21 -107 -41 -110 -46 -2 -4 45 11 105 34 l109 41 67 90 c82 111 110
142 149 166 23 15 26 19 11 19 -22 0 -89 -69 -148 -152 -23 -32 -45 -58 -50
-58 -5 0 -6 5 -2 12 4 7 16 55 25 108 35 193 41 220 54 220 12 0 88 -63 152
-126 l31 -31 -55 -63 c-67 -77 -86 -106 -81 -121 2 -7 18 10 35 37 17 27 52
72 77 99 l46 50 -23 18 c-12 10 -49 43 -82 74 -33 31 -70 60 -82 66 -13 6 -23
13 -23 16 2 21 34 56 97 105 80 63 93 80 93 125 0 64 12 76 89 89 122 21 232
65 289 115 27 25 27 24 7 -102 -8 -57 -20 -100 -31 -112 -9 -11 -14 -22 -11
-26 4 -3 7 -1 7 5 0 7 5 12 10 12 6 0 10 -7 10 -15 0 -8 -5 -15 -10 -15 -7 0
-7 -6 -1 -19 10 -18 8 -57 -18 -326 -5 -55 -15 -165 -21 -245 -6 -80 -16 -151
-23 -158 -8 -10 -7 -16 2 -22 7 -4 11 -16 7 -26 -3 -11 -10 -86 -17 -169 -6
-82 -21 -210 -33 -283 l-22 -133 31 3 c28 3 30 6 37 53 7 52 31 297 48 490 8
96 12 112 32 129 13 10 48 40 78 66 113 98 158 129 225 155 65 24 69 25 88 8
20 -18 20 -18 2 12 -11 17 -20 31 -21 33 -1 2 -10 -1 -21 -7 -10 -6 -43 -20
-73 -31 -39 -14 -81 -44 -145 -100 -49 -45 -103 -90 -119 -102 l-29 -22 7 75
c4 41 13 168 21 284 21 304 25 347 30 380 4 26 19 39 98 87 50 31 126 74 167
95 78 41 239 109 243 102 24 -43 24 -44 6 -70 -19 -26 -19 -27 4 -33 16 -4 27
1 39 17 17 22 22 18 19 -14 -1 -12 5 -15 30 -11 19 3 29 1 26 -5 -3 -5 -2 -23
3 -39 8 -28 8 -28 9 -4 2 24 2 24 16 6 10 -13 11 -25 4 -43 -13 -36 -10 -52 5
-24 l14 24 11 -21 c18 -33 28 -26 23 14 -4 36 -4 36 15 18 11 -11 17 -27 15
-38 -4 -13 -1 -17 9 -14 8 3 24 1 36 -3 13 -5 25 -4 28 2 4 5 11 7 16 3 5 -3
-13 -29 -40 -57 -27 -29 -60 -65 -72 -82 -13 -16 -26 -32 -29 -35 -9 -8 -41
-60 -37 -60 3 0 20 20 39 45 42 53 139 158 156 169 7 4 20 2 28 -5 12 -10 13
-9 8 5 -3 9 -1 16 5 16 7 0 14 -6 17 -14 3 -8 12 -12 19 -9 9 3 19 -7 28 -29
l15 -33 11 28 c6 15 18 28 28 28 33 2 58 -3 61 -12 6 -15 39 -10 46 6 3 8 14
15 25 15 14 0 19 -5 15 -15 -7 -17 11 -21 21 -5 5 8 11 8 20 0 10 -8 16 -7 23
7 14 24 26 10 13 -15 -6 -11 -13 -38 -17 -59 -3 -21 -11 -43 -17 -50 -13 -12
-236 -126 -280 -142 -15 -6 -27 -17 -27 -25 0 -24 -96 -269 -165 -421 -51
-113 -65 -154 -65 -192 0 -58 30 -185 64 -273 27 -70 36 -61 11 11 -23 64 -45
165 -45 205 0 76 47 218 172 514 72 170 54 151 211 230 225 113 447 235 447
247 0 2 -28 -11 -62 -30 -174 -97 -194 -103 -203 -64 -25 100 173 411 330 517
26 18 143 114 228 188 34 30 75 59 92 66 16 7 78 49 138 92 59 43 137 100 173
125 73 52 90 68 56 50 -30 -16 -71 -44 -167 -115 -228 -169 -235 -172 -114
-54 80 78 114 103 198 146 100 51 128 61 116 42 -4 -6 4 -6 19 1 13 6 22 17
20 24 -11 27 40 23 116 -11 112 -49 275 -147 720 -433 268 -172 345 -249 490
-491 143 -239 188 -342 256 -589 l35 -124 -17 -71 c-9 -39 -22 -91 -30 -115
-8 -25 -14 -55 -14 -68 0 -34 -13 -28 -35 15 -11 20 -31 55 -45 77 -15 22 -30
49 -34 59 -3 10 -9 16 -12 14 -6 -6 12 -44 67 -140 20 -35 48 -92 64 -128 15
-36 37 -85 48 -110 30 -68 33 -113 9 -146 -10 -16 -31 -49 -46 -74 -14 -25
-38 -62 -51 -83 -14 -20 -21 -37 -16 -37 6 0 33 37 61 83 28 45 61 94 73 108
36 44 384 201 638 289 l97 34 33 -29 c46 -38 73 -48 229 -85 282 -66 299 -76
381 -212 22 -37 46 -71 52 -76 17 -13 67 -21 67 -11 0 5 -11 9 -24 9 -19 0
-33 14 -66 66 -55 87 -115 152 -159 170 -20 9 -118 35 -219 60 -175 42 -238
66 -226 85 3 5 -1 6 -9 4 -7 -3 -21 3 -30 13 -17 19 -13 21 166 71 101 28 189
51 196 51 14 0 91 -50 91 -60 0 -3 57 -12 127 -19 70 -8 133 -16 140 -18 7 -3
13 -1 13 4 0 5 -52 15 -116 22 -99 11 -124 17 -165 43 -27 16 -49 34 -49 39 0
25 243 -7 283 -39 28 -21 47 -22 47 -1 0 11 -3 18 -8 15 -4 -2 -45 7 -91 20
-46 13 -95 24 -110 25 l-26 0 25 10 c63 26 112 54 138 79 28 26 52 29 52 7 0
-13 -80 -67 -98 -67 -6 0 -14 -4 -17 -10 -11 -17 69 15 93 37 7 7 20 16 29 21
13 8 13 12 2 30 -8 12 -17 22 -22 22 -4 0 -31 -18 -60 -39 -64 -49 -71 -52
-281 -106 -387 -101 -709 -217 -996 -360 -101 -50 -105 -51 -120 -13 -6 18
-28 73 -47 121 -41 102 -40 121 4 285 32 116 32 144 3 240 -12 41 -20 76 -17
78 7 7 239 44 382 60 82 10 236 17 420 18 277 2 292 3 341 25 l51 22 84 -26
c142 -44 203 -66 237 -86 17 -10 32 -15 32 -11 0 22 -68 68 -188 127 -75 37
-132 72 -132 80 0 7 -21 23 -47 35 -107 49 -97 37 -107 128 -5 45 -13 82 -18
82 -5 0 -7 -8 -4 -17 2 -10 8 -46 11 -81 8 -68 8 -68 -55 -35 -14 7 -30 13
-36 13 -6 0 -39 9 -73 21 -72 23 -95 19 -29 -5 35 -13 37 -15 13 -12 -16 1
-58 9 -92 16 -52 12 -81 12 -170 1 -136 -16 -322 -50 -528 -95 -88 -20 -165
-36 -170 -36 -6 0 -24 30 -40 67 -33 78 -189 344 -245 419 -22 28 -66 78 -100
110 -84 81 -85 82 -54 151 38 86 75 197 66 203 -21 17 -283 190 -322 212 -59
34 -103 40 -320 42 l-183 1 2 108 c2 127 -3 105 75 281 l61 139 88 79 c49 44
110 103 135 132 26 29 95 86 154 126 101 69 107 75 101 102 -4 23 2 36 33 71
22 24 61 69 88 101 27 32 63 67 80 77 22 14 26 19 13 19 -14 0 -17 5 -12 20 3
11 6 93 7 183 0 126 4 180 19 242 11 44 23 87 26 95 12 27 13 53 12 210 -1
204 -4 271 -14 293 -8 19 0 131 11 149 4 5 22 17 41 25 36 15 40 30 5 19 -38
-13 -72 -57 -72 -95 l-1 -36 -22 30 c-39 53 -149 187 -300 366 -130 155 -165
190 -295 292 -198 157 -490 373 -609 451 -54 36 -132 88 -173 116 -72 49 -348
195 -356 187 -2 -2 49 -30 114 -62 210 -104 622 -389 1017 -702 72 -57 142
-116 157 -131 70 -69 468 -557 468 -573 0 -20 -18 -4 -72 64 -129 162 -180
222 -190 226 -10 3 61 -87 180 -228 62 -74 87 -110 80 -116 -2 -3 -28 24 -57
60 -29 36 -65 78 -80 93 -14 16 -48 55 -76 87 -69 81 -198 207 -291 285 -43
36 -103 88 -133 116 -31 28 -81 69 -111 92 -30 23 -71 55 -90 71 -114 96 -518
287 -720 340 -372 98 -638 102 -940 16 -25 -7 -81 -23 -125 -35 -138 -39 -335
-108 -411 -146 -110 -54 -129 -87 -250 -429 -31 -88 -70 -198 -87 -245 -31
-87 -57 -202 -57 -254 0 -26 -2 -28 -27 -21 -32 8 -201 91 -223 110 -26 22
-219 135 -231 135 -6 0 -64 52 -129 116 -110 107 -120 121 -150 194 -58 147
-145 412 -160 489 -8 46 4 284 19 365 12 64 114 193 212 266 49 37 148 93 199
114 51 20 213 48 375 65 61 6 139 16 175 21 180 25 256 23 430 -13 91 -19 197
-40 235 -46 189 -34 504 -146 750 -268 212 -105 390 -196 405 -208 26 -21 120
-85 125 -85 2 0 24 -13 47 -29 24 -15 75 -48 113 -71 128 -80 209 -133 268
-177 31 -25 57 -41 57 -36 -1 17 -199 153 -468 324 -170 107 -182 114 -272
161 -41 22 -91 48 -110 58 -97 51 -305 146 -385 175 -118 43 -168 65 -163 71
3 2 30 -4 61 -15 31 -10 54 -15 52 -11 -15 24 -253 85 -601 155 -298 59 -334
62 -524 38z m967 -149 c-3 -3 -12 -4 -19 -1 -8 3 -5 6 6 6 11 1 17 -2 13 -5z
m479 -589 c151 -19 174 -23 344 -68 163 -43 247 -77 446 -180 l151 -79 43 -81
c23 -45 47 -88 53 -96 14 -16 33 -67 52 -139 19 -68 39 -107 81 -156 19 -22
34 -48 34 -58 0 -22 45 -122 64 -140 23 -23 43 -70 80 -181 30 -93 66 -170 66
-142 0 5 5 4 11 -2 21 -21 0 -34 -29 -18 -77 42 -170 69 -188 54 -16 -13 -90
4 -123 28 -29 22 -47 73 -26 73 34 0 21 37 -49 143 -56 85 -86 120 -123 144
-62 40 -144 83 -160 83 -7 0 -23 10 -35 22 -20 20 -25 21 -80 9 -49 -10 -61
-10 -73 3 -13 12 -12 15 2 20 9 4 14 9 11 11 -2 3 -30 -4 -61 -15 -41 -14 -82
-20 -150 -20 -51 0 -97 -4 -103 -9 -14 -15 -122 -41 -140 -34 -8 3 -22 -1 -32
-10 -39 -34 -185 -117 -208 -117 -15 0 -24 -6 -24 -16 0 -9 5 -12 12 -8 7 5 8
3 4 -5 -5 -7 -11 -10 -14 -7 -7 8 -42 -24 -42 -38 0 -6 -12 -24 -27 -41 -16
-16 -32 -44 -38 -63 -6 -22 -25 -45 -51 -64 -35 -25 -54 -30 -139 -38 -102
-10 -150 -1 -150 29 0 7 -18 28 -40 47 -22 18 -34 34 -27 34 6 0 12 5 12 10 0
6 -14 10 -31 10 -24 0 -40 10 -70 43 -22 23 -37 47 -35 53 3 7 -3 10 -13 7
-11 -3 -30 6 -45 21 -15 14 -60 37 -99 53 -40 15 -75 32 -79 37 -4 6 -18 4
-36 -3 -17 -7 -35 -10 -40 -8 -4 3 -34 -14 -64 -38 -31 -24 -87 -59 -125 -76
-37 -18 -98 -59 -135 -92 -38 -32 -68 -53 -68 -45 0 37 31 181 53 243 13 39
48 140 76 225 29 85 62 174 72 198 11 24 27 62 36 85 20 51 61 117 82 135 103
82 612 242 867 271 110 13 187 12 320 -4z m739 -1065 c169 -14 204 -30 262
-120 58 -89 79 -105 158 -120 78 -15 93 -27 87 -70 -3 -23 -13 -35 -42 -50
-49 -25 -122 -107 -162 -182 -90 -169 -185 -202 -510 -179 -402 29 -618 56
-661 85 -28 19 -88 106 -129 186 -41 82 -91 149 -118 160 -36 15 -123 9 -165
-11 -16 -8 -45 -38 -64 -67 -19 -29 -36 -51 -37 -49 -2 2 3 25 12 51 22 64 13
137 -21 182 -53 70 -280 104 -525 78 -261 -27 -342 -64 -353 -161 -4 -38 3
-70 32 -158 45 -132 95 -222 142 -253 32 -22 40 -23 124 -17 112 8 315 48 391
76 38 15 74 38 106 70 50 50 63 49 27 -2 -14 -19 -22 -48 -23 -82 -5 -107 -28
-313 -37 -329 -5 -10 -23 -58 -39 -108 -17 -50 -52 -137 -79 -193 -38 -80 -50
-116 -53 -165 -4 -60 -3 -65 25 -88 33 -28 89 -58 127 -68 14 -4 -4 9 -40 29
-88 48 -93 55 -88 146 4 65 10 85 45 148 l40 73 46 -60 c68 -88 104 -115 141
-108 40 8 128 62 165 101 24 24 30 42 35 90 l5 60 -13 -64 c-11 -53 -20 -70
-47 -93 -40 -33 -141 -88 -160 -88 -21 1 -59 37 -116 110 l-51 66 40 94 c31
73 43 115 49 180 4 47 13 135 19 195 8 92 16 122 45 184 61 127 105 192 141
207 42 17 123 20 151 5 28 -14 67 -72 127 -186 49 -93 88 -145 126 -165 39
-21 379 -62 670 -80 345 -22 417 6 528 210 23 42 56 90 75 108 l33 32 90 -19
c153 -34 165 -40 191 -102 18 -43 21 -65 16 -109 -3 -30 -8 -59 -11 -65 -3 -5
-5 -29 -3 -52 2 -30 -1 -43 -9 -41 -8 2 -14 -16 -17 -52 -2 -30 -5 -62 -6 -71
-1 -11 -8 -14 -21 -11 -15 4 -18 2 -12 -13 4 -11 -2 -29 -17 -49 -13 -17 -36
-56 -51 -86 -16 -30 -42 -74 -57 -97 -16 -23 -29 -44 -29 -47 0 -3 -17 -34
-38 -68 -56 -94 -63 -112 -113 -288 -7 -25 -19 -52 -26 -61 -7 -8 -13 -20 -13
-25 0 -6 -18 -58 -40 -117 -22 -58 -40 -117 -40 -131 0 -14 -4 -26 -9 -26 -5
0 -11 -9 -14 -19 -3 -14 -1 -18 9 -14 17 6 19 -13 3 -23 -8 -4 -7 -9 2 -15 10
-6 11 -9 2 -9 -19 0 -16 -56 3 -75 10 -9 20 -41 23 -73 l6 -57 15 33 c8 17 18
32 22 32 12 0 9 -13 -7 -34 -10 -13 -11 -25 -5 -42 5 -13 9 -60 9 -103 l-1
-79 -29 8 c-18 5 -27 5 -24 -1 10 -15 -18 -10 -43 7 -12 8 -55 29 -94 45 l-73
30 -88 -46 c-57 -31 -94 -44 -107 -40 -15 5 -18 3 -14 -8 7 -19 -25 -31 -43
-15 -12 10 -14 9 -11 -8 2 -12 -3 -19 -12 -19 -8 0 -22 -9 -31 -20 -14 -17
-19 -17 -33 -6 -10 8 -14 21 -11 32 4 11 -1 21 -14 28 -27 15 -30 14 -24 -8 3
-10 0 -28 -6 -39 -8 -15 -8 -21 2 -25 16 -5 -20 -47 -41 -47 -10 0 -12 -7 -8
-26 6 -22 -1 -34 -46 -80 -29 -30 -58 -52 -65 -50 -7 3 -10 -1 -7 -8 6 -15
-27 -45 -161 -149 -55 -43 -108 -85 -117 -92 -11 -9 -20 -10 -23 -4 -4 5 -11
6 -17 3 -6 -4 -19 4 -29 17 l-19 24 0 -22 c0 -25 -34 -33 -43 -10 -4 9 -8 9
-15 -2 -8 -12 -14 -8 -30 18 -15 25 -21 28 -25 17 -12 -29 -29 -18 -22 14 5
24 3 30 -11 30 -9 0 -22 -7 -29 -17 -10 -13 -12 -9 -11 29 1 30 -5 53 -15 64
-18 20 -10 64 11 64 8 0 9 11 5 30 -7 30 8 43 19 18 3 -7 3 -1 0 14 -5 22 -2
28 11 28 9 0 13 5 10 11 -4 5 0 18 8 27 8 9 17 26 19 37 2 11 11 19 20 19 10
-1 19 9 23 23 7 31 -1 42 -10 14 -3 -12 -10 -21 -15 -21 -9 0 -3 26 10 45 12
17 8 43 -6 38 -7 -2 -10 -11 -8 -18 4 -10 -1 -12 -15 -8 -17 4 -20 2 -15 -11
11 -28 -14 -17 -33 14 -19 32 -29 37 -35 18 -3 -8 -23 -13 -51 -13 -41 -1 -46
2 -41 17 7 23 -1 23 -43 -3 -21 -13 -40 -18 -51 -13 -9 4 -21 8 -27 9 -5 0 -9
7 -7 13 2 10 -3 10 -18 2 -11 -6 -20 -18 -21 -28 0 -12 -3 -10 -10 7 -8 19
-12 21 -24 11 -8 -7 -15 -19 -15 -26 0 -8 -6 -11 -17 -7 -13 5 -15 2 -10 -11
4 -10 7 -27 7 -38 0 -14 5 -18 15 -14 9 3 15 0 15 -9 0 -8 5 -15 12 -15 9 0 9
-3 0 -12 -15 -15 -16 -31 -1 -22 9 5 10 -4 5 -30 l-7 -37 28 18 c28 17 28 17
13 -2 -8 -11 -17 -22 -20 -25 -14 -14 -30 -52 -25 -59 3 -5 1 -20 -4 -33 -8
-22 -9 -22 -20 12 l-11 35 4 -38 c4 -26 1 -37 -9 -37 -7 0 -15 6 -17 12 -3 8
-14 2 -31 -17 -29 -33 -38 -67 -12 -45 13 11 15 8 15 -13 0 -18 -4 -25 -14
-21 -7 3 -16 -2 -19 -10 -4 -9 -11 -16 -17 -16 -6 0 -8 6 -5 13 4 6 -4 1 -17
-13 -13 -14 -31 -26 -40 -26 -14 -1 -17 6 -14 48 3 36 1 47 -7 39 -17 -17 -27
-13 -27 9 0 11 -5 20 -11 20 -5 0 -8 -4 -5 -9 3 -5 -1 -14 -9 -21 -18 -15 -19
-7 -5 21 6 10 21 19 33 19 14 0 18 3 10 8 -7 4 -16 19 -22 32 -7 18 -10 20
-10 8 -1 -25 -21 -23 -21 2 0 24 -15 26 -24 4 -5 -13 -9 -14 -21 -4 -8 7 -12
17 -9 22 4 6 10 5 15 -3 7 -12 9 -11 10 1 2 34 8 53 24 71 11 11 15 25 10 36
-6 16 -9 14 -23 -12 -13 -24 -17 -26 -20 -12 -3 15 -6 15 -23 -5 l-20 -23 16
34 c9 18 12 30 6 26 -6 -3 -23 -9 -37 -11 -20 -4 -25 -1 -21 10 4 9 -2 16 -16
20 -20 5 -20 6 -4 24 9 10 17 24 17 31 0 6 7 14 15 17 8 4 12 10 9 16 -6 9
-44 -28 -44 -42 0 -5 -7 -11 -16 -14 -23 -9 -9 28 26 66 16 17 26 36 23 41 -4
6 -10 1 -14 -11 -5 -12 -13 -22 -20 -22 -6 0 -9 3 -7 8 2 4 12 24 23 44 18 36
14 68 -5 38 -7 -11 -11 -8 -19 13 -15 39 -14 54 7 66 16 10 16 10 0 11 -17 0
-23 25 -20 79 2 47 -23 153 -47 201 -16 30 -47 91 -69 135 -59 116 -74 178
-77 335 -5 192 -13 295 -37 460 -11 80 -21 190 -22 245 l-1 100 85 7 c156 13
254 29 340 55 87 26 174 65 185 83 9 15 0 12 -37 -9 -47 -27 -195 -78 -265
-90 -122 -22 -275 -30 -308 -17 -45 19 -100 88 -125 159 -13 34 -29 76 -36 92
-7 17 -23 56 -35 88 -16 45 -29 64 -55 79 -42 24 -42 34 -5 56 16 9 38 35 50
59 25 52 53 67 167 89 69 14 139 18 314 18 261 0 327 -12 435 -75 73 -42 95
-45 226 -31 62 7 71 12 139 67 100 83 117 93 179 106 131 27 567 32 836 9z
m-2295 -129 c0 -4 -8 -16 -18 -27 -10 -11 -17 -25 -14 -32 2 -8 -5 -10 -27 -6
-28 6 -30 4 -37 -30 -4 -26 -14 -41 -35 -51 -38 -20 -53 -19 -44 3 3 9 13 51
21 92 8 41 19 85 24 97 l10 23 60 -31 c33 -17 60 -34 60 -38z m580 -22 c91
-41 144 -54 227 -54 62 0 83 -3 83 -13 0 -7 7 -20 15 -28 15 -15 21 -85 8 -97
-3 -4 -13 -1 -21 6 -13 10 -14 9 -4 -10 15 -27 16 -63 2 -63 -5 0 -10 2 -10 4
0 2 -3 12 -7 22 -5 13 -3 15 7 9 9 -5 11 -4 6 4 -4 6 -11 9 -15 6 -5 -2 -21 7
-35 20 -15 14 -31 25 -36 25 -4 0 -10 4 -12 8 -7 18 -124 64 -162 65 -55 2
-195 -15 -173 -20 26 -7 15 -27 -16 -31 -15 -2 -27 -8 -27 -13 0 -13 -46 -59
-60 -59 -5 0 -10 -7 -10 -15 0 -8 5 -15 11 -15 6 0 9 -6 6 -12 -2 -7 -9 -12
-15 -11 -6 2 -9 -4 -6 -12 4 -8 1 -15 -6 -15 -7 0 -10 -7 -6 -15 3 -8 1 -15
-4 -15 -6 0 -10 -9 -10 -20 0 -14 7 -20 23 -21 12 0 16 -3 9 -6 -6 -2 -10 -9
-7 -13 3 -5 13 -6 22 -3 12 5 14 3 8 -8 -8 -12 -6 -12 8 0 9 7 27 11 40 9 13
-2 28 0 33 6 6 6 55 12 110 14 54 1 131 10 170 18 40 9 85 14 100 12 l29 -4
-47 -46 c-40 -39 -61 -51 -132 -73 -89 -27 -320 -65 -397 -65 -29 0 -51 6 -59
15 -21 25 0 170 39 268 25 63 1 122 -63 158 -32 18 -36 23 -23 31 9 5 20 9 24
9 5 0 15 7 24 15 11 10 30 13 63 9 26 -3 53 -2 59 3 18 13 87 32 132 35 22 2
45 4 50 5 6 1 30 -8 55 -19z m-490 -71 c0 -16 -3 -19 -11 -11 -6 6 -8 16 -5
22 11 17 16 13 16 -11z m-150 8 c0 -3 -4 -8 -10 -11 -5 -3 -10 -1 -10 4 0 6 5
11 10 11 6 0 10 -2 10 -4z m210 -21 c16 -19 0 -19 -26 0 -16 12 -16 14 -3 15
9 0 22 -7 29 -15z m2875 -96 c88 -44 167 -83 175 -87 26 -15 102 -51 185 -86
61 -27 81 -40 83 -57 3 -18 0 -20 -15 -14 -10 4 -76 25 -148 45 -71 21 -173
51 -225 68 -52 16 -130 38 -172 48 -43 10 -78 23 -78 29 0 7 -13 10 -32 8
l-33 -4 29 17 c28 15 28 18 23 74 l-5 59 27 -11 c14 -6 98 -46 186 -89z
m-2937 67 c15 -7 38 -17 52 -20 24 -7 24 -6 6 8 -25 20 -13 20 25 1 16 -9 33
-13 38 -11 25 16 48 -62 31 -104 -12 -28 -30 -41 -30 -21 0 5 -33 22 -72 37
-94 36 -98 39 -98 85 0 42 7 46 48 25z m-178 -52 c0 -22 3 -23 20 -14 16 9 18
8 14 -5 -4 -11 -2 -13 9 -9 24 9 29 -13 12 -61 -8 -25 -15 -68 -15 -95 0 -28
-4 -50 -9 -50 -15 0 -13 -368 4 -527 15 -150 32 -214 105 -413 17 -47 40 -110
50 -142 10 -31 49 -112 86 -180 37 -67 73 -134 80 -148 8 -14 37 -47 66 -74
l53 -48 -35 4 c-19 3 -49 -1 -67 -8 -18 -8 -37 -14 -42 -14 -16 0 -133 121
-181 188 -67 93 -246 415 -281 506 -33 87 -58 201 -60 274 l-1 47 -9 -35 c-18
-71 25 -251 83 -351 14 -24 48 -89 76 -144 81 -163 144 -262 240 -382 23 -29
42 -55 42 -59 0 -3 -53 23 -117 57 -65 35 -167 89 -228 120 l-110 57 -45 114
c-25 63 -54 131 -64 151 -9 21 -35 84 -56 140 -21 56 -47 123 -59 149 -29 69
-60 361 -61 579 0 97 2 107 23 125 59 52 55 64 54 -163 0 -156 4 -226 16 -282
9 -41 18 -75 20 -77 2 -2 25 7 51 19 l48 22 -8 40 c-4 22 -10 121 -13 220 l-6
180 -8 -101 c-8 -92 -7 -128 9 -280 5 -51 5 -52 -27 -63 -18 -6 -33 -10 -35
-9 -1 2 -7 21 -14 43 -13 43 -24 463 -14 502 6 21 86 83 107 83 5 0 7 -14 3
-32 -3 -18 -8 -57 -11 -87 l-5 -56 10 45 c6 25 15 70 21 100 10 52 13 57 52
73 55 22 58 22 52 -10 -5 -20 0 -15 14 14 17 36 30 47 83 71 35 16 66 27 71
25 4 -2 7 -15 7 -29z m736 -14 c-34 -41 -42 -87 -22 -135 9 -20 16 -39 16 -40
0 -2 -48 -3 -107 -4 -60 -1 -103 2 -97 6 6 5 14 30 17 56 13 98 67 147 160
147 l59 0 -26 -30z m-943 4 c20 -4 37 -10 37 -14 0 -4 -25 -18 -55 -30 -30
-12 -55 -26 -55 -30 0 -4 -11 -12 -25 -18 -22 -10 -25 -9 -25 8 0 11 8 35 17
55 18 38 31 41 106 29z m967 -38 c-25 -41 -20 -95 7 -92 9 0 18 -5 21 -13 3
-10 0 -12 -13 -7 -15 5 -16 4 -5 -9 19 -23 0 -18 -27 7 -37 34 -28 112 16 145
24 17 24 9 1 -31z m-215 -13 c-14 -27 -26 -58 -28 -71 -4 -26 -27 -55 -27 -33
0 30 61 151 76 151 2 0 -8 -21 -21 -47z m380 12 c17 -13 26 -24 20 -25 -5 0
-23 11 -40 25 -16 13 -25 24 -20 25 6 0 24 -11 40 -25z m-40 -13 c17 -8 25
-17 19 -19 -16 -5 -87 22 -92 36 -5 15 24 8 73 -17z m-705 -28 c0 -8 -4 -12
-10 -9 -5 3 -10 10 -10 16 0 5 5 9 10 9 6 0 10 -7 10 -16z m-85 -24 c3 -5 -1
-10 -10 -10 -9 0 -13 5 -10 10 3 6 8 10 10 10 2 0 7 -4 10 -10z m-455 -7 c0
-8 -70 -73 -80 -73 -3 0 -5 13 -2 30 3 20 12 32 31 39 32 12 51 13 51 4z m670
-18 c0 -8 -4 -15 -10 -15 -5 0 -7 7 -4 15 4 8 8 15 10 15 2 0 4 -7 4 -15z
m-213 -11 c-3 -3 -12 -4 -19 -1 -8 3 -5 6 6 6 11 1 17 -2 13 -5z m3043 -14 c0
-5 -2 -10 -4 -10 -3 0 -8 5 -11 10 -3 6 -1 10 4 10 6 0 11 -4 11 -10z m-3025
-10 c4 -6 -5 -10 -20 -10 -15 0 -24 4 -20 10 3 6 12 10 20 10 8 0 17 -4 20
-10z m175 -15 c0 -8 -7 -15 -15 -15 -26 0 -18 20 13 29 1 1 2 -6 2 -14z m-165
-25 c-8 -14 -64 -17 -69 -4 -3 7 -3 14 -1 16 8 7 75 -4 70 -12z m105 -11 c0
-6 -4 -7 -10 -4 -5 3 -10 11 -10 16 0 6 5 7 10 4 6 -3 10 -11 10 -16z m-90
-20 c0 -5 -11 -9 -24 -9 -32 0 -45 -20 -14 -21 18 -1 16 -3 -11 -10 -18 -6
-36 -8 -38 -5 -12 11 8 36 39 49 34 14 48 13 48 -4z m124 -41 c19 -36 19 -38
7 -38 -7 0 -31 51 -31 66 0 12 11 0 24 -28z m-95 -23 c-3 -2 -19 -5 -37 -7
-18 -1 -32 -5 -32 -8 0 -4 -13 -7 -30 -7 -29 0 -37 7 -23 20 3 4 33 7 66 7 33
0 58 -2 56 -5z m4 -32 c-7 -2 -19 -2 -25 0 -7 3 -2 5 12 5 14 0 19 -2 13 -5z
m-103 -7 c0 -3 -4 -8 -10 -11 -5 -3 -10 -1 -10 4 0 6 5 11 10 11 6 0 10 -2 10
-4z m24 -33 c3 -4 -4 -13 -16 -20 -22 -13 -22 -13 12 -11 19 1 36 -2 38 -7 1
-6 -16 -11 -38 -13 -39 -3 -40 -2 -40 28 0 22 5 30 18 30 10 0 22 -3 26 -7z
m3396 -3 c0 -5 -2 -10 -4 -10 -3 0 -8 5 -11 10 -3 6 -1 10 4 10 6 0 11 -4 11
-10z m-130 -18 c0 -4 -24 -20 -53 -35 -29 -16 -79 -50 -111 -78 -63 -54 -93
-66 -49 -20 29 30 190 141 205 141 4 0 8 -4 8 -8z m-3147 -19 c-7 -2 -19 -2
-25 0 -7 3 -2 5 12 5 14 0 19 -2 13 -5z m3218 -35 c16 -29 2 -21 -22 15 -17
23 -18 28 -6 18 10 -8 23 -23 28 -33z m-40 10 c11 -21 11 -22 -4 -9 -10 7 -17
17 -17 22 0 15 9 10 21 -13z m-3281 -8 c-20 -13 -73 -13 -65 0 3 6 23 10 43
10 28 0 33 -3 22 -10z m127 -6 c-3 -3 -12 -4 -19 -1 -8 3 -5 6 6 6 11 1 17 -2
13 -5z m3165 -77 c3 4 3 2 1 -6 -2 -7 2 -21 9 -30 7 -9 -15 12 -49 47 -35 34
-63 65 -63 69 0 4 22 -14 49 -41 27 -26 51 -44 53 -39z m93 35 c-6 -7 -35 18
-35 31 0 5 9 2 20 -8 11 -10 18 -20 15 -23z m-3356 18 c11 0 11 -3 1 -15 -14
-17 -35 -21 -25 -5 3 6 -4 10 -18 10 -29 0 -37 -7 -30 -26 6 -16 49 -19 58 -4
7 12 45 13 45 2 0 -5 -25 -17 -55 -27 -30 -11 -55 -23 -55 -27 0 -5 15 -2 33
5 33 13 67 12 67 -2 0 -5 -19 -11 -42 -15 -23 -4 -50 -14 -60 -23 -17 -15 -18
-14 -18 25 0 23 5 42 10 42 7 0 7 6 0 19 -5 11 -10 22 -10 26 0 11 45 24 65
20 11 -3 26 -5 34 -5z m114 -7 c-7 -2 -21 -2 -30 0 -10 3 -4 5 12 5 17 0 24
-2 18 -5z m3207 -13 c6 -11 8 -20 6 -20 -3 0 -10 9 -16 20 -6 11 -8 20 -6 20
3 0 10 -9 16 -20z m-3197 -27 c-7 -2 -21 -2 -30 0 -10 3 -4 5 12 5 17 0 24 -2
18 -5z m2957 -4 c0 -6 10 -20 23 -31 12 -11 15 -16 7 -12 -38 18 -64 54 -40
54 6 0 10 -5 10 -11z m101 4 c0 -5 2 -16 4 -26 3 -15 1 -16 -11 -6 -16 13 -19
39 -4 39 6 0 10 -3 11 -7z m-58 -78 c4 3 5 2 2 -1 -7 -10 15 -45 24 -39 5 2
20 -10 35 -29 22 -29 23 -36 11 -46 -12 -10 -15 -7 -20 13 -6 22 -26 38 -65
50 -30 9 -19 -30 18 -64 35 -33 31 -22 -12 31 -11 14 -3 8 19 -12 36 -34 38
-39 24 -54 -15 -14 -18 -13 -42 15 -14 17 -29 31 -33 31 -5 0 -3 -5 4 -12 18
-18 14 -32 -5 -17 -10 7 -6 0 10 -15 30 -30 32 -37 15 -54 -9 -9 -17 -7 -37
11 -25 22 -20 6 7 -25 22 -26 3 -22 -26 5 -25 22 -22 7 5 -24 11 -13 9 -19
-11 -38 -15 -14 -30 -20 -37 -15 -9 5 -10 2 -6 -10 4 -10 3 -15 -3 -11 -6 3
-10 12 -10 19 0 7 -10 21 -22 32 -17 14 -19 14 -10 2 7 -9 14 -31 14 -48 1
-22 5 -29 15 -26 11 4 11 1 3 -14 -12 -23 -30 -26 -30 -5 0 7 -6 18 -14 22 -8
4 -34 26 -57 48 -24 22 -47 39 -51 38 -5 -2 -7 0 -7 5 3 18 -2 26 -10 13 -5
-7 -11 -9 -14 -4 -3 5 -2 15 3 23 7 12 17 8 48 -23 21 -20 41 -35 44 -31 4 3
19 -2 35 -12 16 -10 2 9 -35 47 -45 47 -61 70 -56 82 3 9 9 17 13 17 14 0 64
-60 57 -67 -4 -5 -13 -1 -19 7 -14 17 -47 44 -47 38 0 -2 21 -24 47 -48 26
-25 41 -37 34 -27 -28 37 1 29 42 -11 24 -23 47 -42 52 -42 6 0 -29 38 -77 84
-48 46 -85 86 -82 88 4 5 24 -12 127 -111 74 -70 52 -32 -32 54 -73 76 -73 76
-53 95 11 10 22 25 25 32 5 13 54 -33 125 -120 19 -23 37 -40 40 -37 3 2 -13
24 -36 48 -22 25 -52 63 -67 86 -15 22 -32 41 -37 41 -5 0 -6 5 -2 11 4 7 21
-5 44 -32 31 -35 41 -42 51 -32 10 10 9 17 -9 36 -30 32 -28 43 5 18 14 -12
29 -19 32 -16 3 4 -1 10 -9 15 -8 6 -11 10 -6 10 6 0 21 -10 34 -22 22 -21 24
-21 14 -3 -6 11 -24 33 -41 49 -17 17 -31 34 -31 40 0 5 17 -7 38 -27 21 -21
41 -35 45 -32z m-3854 33 c-7 -13 -17 -26 -24 -30 -7 -4 -16 -36 -20 -70 -4
-35 -9 -57 -12 -50 -3 6 -11 12 -19 12 -9 0 -14 11 -14 35 0 29 8 43 47 80 53
51 58 54 42 23z m3980 -12 c-3 -3 -11 5 -18 17 -13 21 -12 21 5 5 10 -10 16
-20 13 -22z m-3136 12 c-16 -8 -32 -8 -55 0 -32 9 -31 10 22 10 46 1 52 -1 33
-10z m2900 -4 c-7 -3 -9 -12 -6 -20 6 -16 -13 -19 -23 -3 -7 11 13 29 31 28 6
0 5 -3 -2 -5z m332 -3 c3 -5 1 -12 -5 -16 -5 -3 -10 1 -10 9 0 18 6 21 15 7z
m-133 -47 c6 12 5 23 -3 34 -8 9 -1 6 14 -7 19 -17 25 -30 21 -44 -5 -16 -3
-19 10 -14 22 9 20 4 -7 -21 l-24 -22 -30 47 c-43 69 -49 83 -17 44 23 -29 28
-31 36 -17z m-3157 26 c-3 -5 -22 -10 -42 -10 -20 0 -46 -9 -60 -20 -27 -21
-53 -26 -53 -11 0 5 9 13 20 16 11 3 20 10 20 15 0 11 25 17 78 19 27 1 41 -3
37 -9z m3235 -44 c0 -6 -7 -2 -15 8 -8 11 -15 25 -15 30 0 6 7 2 15 -8 8 -11
15 -25 15 -30z m80 -10 c0 -33 -5 -48 -20 -59 -37 -26 -125 -113 -194 -192
-98 -113 -112 -135 -25 -40 88 95 221 225 232 225 10 0 9 -49 -3 -90 -5 -19
-29 -55 -53 -80 -96 -101 -144 -166 -151 -202 -6 -33 -17 -44 -104 -104 -53
-37 -106 -79 -117 -93 -28 -36 -158 -161 -168 -161 -10 0 -2 32 38 156 36 112
47 131 163 288 89 119 144 179 248 272 38 33 85 75 104 92 19 17 38 32 43 32
4 0 7 -20 7 -44z m-3275 24 c-3 -5 -15 -10 -25 -10 -10 0 -22 5 -25 10 -4 6 7
10 25 10 18 0 29 -4 25 -10z m-80 -10 c-3 -5 -14 -10 -23 -10 -9 0 -30 -9 -47
-20 -33 -22 -45 -25 -45 -11 0 11 79 50 103 51 10 0 15 -4 12 -10z m3020 -10
c10 -11 14 -20 9 -20 -5 0 -15 9 -22 20 -7 11 -11 20 -9 20 2 0 12 -9 22 -20z
m-2917 -29 c15 -9 13 -10 -8 -11 -14 0 -40 4 -58 9 -21 6 -32 6 -32 0 0 -16
-27 -39 -35 -31 -5 4 -5 2 -2 -4 4 -7 -4 -14 -21 -16 -15 -3 -33 -7 -41 -9 -8
-2 -15 5 -17 17 -7 43 158 77 214 45z m-87 -48 c0 -5 2 -18 5 -30 3 -18 -2
-22 -36 -28 -22 -4 -42 -10 -45 -15 -9 -14 -41 1 -42 20 -1 13 12 23 50 38 61
23 67 24 68 15z m94 -3 c4 -6 -6 -10 -24 -10 -16 0 -33 5 -36 10 -4 6 6 10 24
10 16 0 33 -4 36 -10z m-15 -30 c0 -5 -7 -10 -16 -10 -8 0 -12 -4 -9 -10 3 -5
1 -10 -4 -10 -12 0 -15 23 -4 33 10 11 33 8 33 -3z m30 -30 c0 -5 -9 -10 -20
-10 -11 0 -20 5 -20 10 0 6 9 10 20 10 11 0 20 -4 20 -10z m-35 -30 c-4 -6
-14 -10 -23 -9 -10 1 -26 -2 -37 -7 -18 -8 -17 -9 10 -15 l30 -6 -27 -6 c-84
-21 -85 -21 -18 -27 58 -5 62 -7 35 -15 -16 -4 -57 -9 -90 -9 -55 -1 -60 1
-57 19 2 11 9 24 15 28 8 6 5 7 -5 3 -12 -3 -18 0 -18 9 0 16 24 25 95 35 76
11 97 11 90 0z m36 -29 c-7 -5 -23 -6 -35 -3 -19 6 -18 7 9 12 34 7 46 3 26
-9z m2729 -40 c0 -4 16 -23 36 -44 20 -21 35 -40 32 -42 -2 -2 -22 7 -44 22
l-39 26 35 -38 35 -37 -30 15 c-37 19 -130 115 -120 125 4 4 15 -4 26 -17 11
-13 23 -20 27 -16 4 4 -3 14 -15 22 -38 26 -26 34 17 12 22 -12 40 -24 40 -28z
m-2727 2 c-7 -2 -19 -2 -25 0 -7 3 -2 5 12 5 14 0 19 -2 13 -5z m2712 -85 l70
-71 -60 46 c-55 42 -95 80 -95 92 0 15 23 -3 85 -67z m-2770 43 c-3 -5 3 -11
12 -14 15 -3 14 -6 -7 -14 -19 -8 -27 -7 -33 3 -10 18 -1 34 19 34 8 0 13 -4
9 -9z m-120 -11 c-3 -5 -10 -10 -16 -10 -5 0 -9 5 -9 10 0 6 7 10 16 10 8 0
12 -4 9 -10z m2797 -2 c3 -7 13 -13 24 -13 10 0 19 -7 19 -15 0 -8 9 -25 20
-38 11 -12 20 -26 20 -30 1 -4 6 -17 13 -29 7 -13 10 -23 6 -23 -9 0 -43 43
-44 55 0 14 -80 92 -80 79 0 -6 11 -21 25 -34 14 -13 23 -26 20 -28 -4 -5 -55
44 -55 53 0 2 3 10 6 19 7 19 21 21 26 4z m-2732 -6 c0 -4 -15 -13 -32 -20
-42 -15 -42 -15 -46 -4 -2 6 10 15 25 20 35 13 53 14 53 4z m2716 -70 c-6 -5
-36 23 -36 34 0 4 9 -1 20 -11 11 -10 18 -20 16 -23z m-2736 8 c0 -5 -5 -10
-11 -10 -5 0 -7 5 -4 10 3 6 8 10 11 10 2 0 4 -4 4 -10z m2711 -21 c9 -18 9
-19 -10 -7 -12 7 -21 19 -21 26 0 17 17 7 31 -19z m-2601 12 c0 -5 -6 -9 -12
-8 -33 1 -49 -4 -43 -13 3 -5 0 -10 -8 -10 -25 0 -28 14 -5 27 27 14 68 17 68
4z m2695 -69 c-7 -7 -45 29 -45 41 0 6 11 0 25 -13 14 -13 23 -26 20 -28z m86
25 c-8 -8 -14 -7 -23 2 -10 11 -10 13 0 7 6 -4 12 -2 12 4 0 6 5 8 11 4 8 -4
8 -9 0 -17z m-117 -67 c17 -1 62 -38 54 -45 -8 -8 -158 105 -158 118 0 5 21
-10 46 -32 26 -23 52 -41 58 -41z m-2714 60 c-8 -5 -19 -10 -25 -10 -5 0 -3 5
5 10 8 5 20 10 25 10 6 0 3 -5 -5 -10z m15 -30 c-3 -5 -17 -10 -31 -10 -14 0
-22 4 -19 10 3 6 17 10 31 10 14 0 22 -4 19 -10z m2590 -10 c3 -5 1 -10 -4
-10 -6 0 -11 5 -11 10 0 6 2 10 4 10 3 0 8 -4 11 -10z m-2571 -21 c-5 -9 1
-10 20 -5 46 11 28 -11 -19 -24 -25 -7 -48 -17 -51 -22 -3 -4 -10 -6 -15 -3
-5 4 -4 12 3 20 7 8 19 21 26 30 15 17 47 21 36 4z m2746 -9 c0 -5 -2 -10 -4
-10 -3 0 -8 5 -11 10 -3 6 -1 10 4 10 6 0 11 -4 11 -10z m-59 -37 c13 -16 12
-17 -3 -4 -17 13 -22 21 -14 21 2 0 10 -8 17 -17z m-76 -3 c3 -6 -1 -7 -9 -4
-18 7 -21 14 -7 14 6 0 13 -4 16 -10z m-2575 -19 c0 -11 -69 -35 -77 -27 -3 3
9 12 28 20 40 18 49 19 49 7z m2655 -11 c3 -5 2 -10 -4 -10 -5 0 -13 5 -16 10
-3 6 -2 10 4 10 5 0 13 -4 16 -10z m-2635 -28 c0 -4 -9 -8 -20 -9 -11 -1 -20
2 -20 8 0 5 9 9 20 9 11 0 20 -4 20 -8z m2465 -22 c3 -5 1 -10 -4 -10 -6 0
-11 5 -11 10 0 6 2 10 4 10 3 0 8 -4 11 -10z m171 -16 c-3 -9 -6 -18 -6 -20 0
-2 -5 -4 -11 -4 -8 0 -9 4 0 13 6 8 8 17 4 20 -3 4 -1 7 6 7 8 0 11 -6 7 -16z
m-2686 1 c0 -2 -9 -9 -20 -15 -16 -9 -20 -8 -20 5 0 8 9 15 20 15 11 0 20 -2
20 -5z m2649 -34 c13 -10 20 -21 15 -24 -5 -3 -25 8 -44 23 -39 32 -13 33 29
1z m-2579 -5 c0 -2 -9 -6 -20 -9 -11 -3 -18 -1 -14 4 5 9 34 13 34 5z m2575
-46 c3 -5 1 -10 -4 -10 -6 0 -11 5 -11 10 0 6 2 10 4 10 3 0 8 -4 11 -10z
m-2560 -20 c-3 -5 -16 -10 -28 -9 -20 1 -20 2 3 9 14 4 26 8 28 9 2 1 0 -3 -3
-9z m2555 -12 c0 -6 -6 -5 -15 2 -8 7 -15 14 -15 16 0 2 7 1 15 -2 8 -4 15
-11 15 -16z m-80 -23 c11 -13 10 -14 -6 -8 -17 6 -18 5 -4 -12 14 -17 14 -18
-7 -7 -27 15 -41 34 -17 25 12 -4 15 -3 10 5 -11 17 9 15 24 -3z m-2473 -1
c-3 -3 -12 -4 -19 -1 -8 3 -5 6 6 6 11 1 17 -2 13 -5z m8 -24 c-3 -5 -12 -10
-18 -10 -7 0 -6 4 3 10 19 12 23 12 15 0z m2472 -70 c-1 -20 -8 -25 -20 -14
-3 3 0 12 6 20 16 17 16 17 14 -6z m-2452 -20 c-3 -5 -16 -10 -28 -10 -18 0
-19 2 -7 10 20 13 43 13 35 0z m2435 -40 c0 -5 -2 -10 -4 -10 -3 0 -8 5 -11
10 -3 6 -1 10 4 10 6 0 11 -4 11 -10z m-60 -56 c0 -2 -9 0 -20 6 -11 6 -20 13
-20 16 0 2 9 0 20 -6 11 -6 20 -13 20 -16z m30 16 c0 -5 -7 -7 -15 -4 -8 4
-15 8 -15 10 0 2 7 4 15 4 8 0 15 -4 15 -10z m-2488 -173 c25 -18 31 -19 70
-8 24 8 69 15 100 16 56 3 57 3 64 -28 6 -27 2 -35 -32 -65 -89 -78 -214 -205
-214 -216 0 -8 -10 -26 -22 -42 -20 -25 -20 -27 -4 -21 16 6 17 5 6 -8 -7 -8
-19 -15 -26 -15 -7 0 -11 -6 -8 -14 3 -8 -4 -16 -17 -19 -18 -5 -20 -11 -15
-34 15 -63 25 -163 26 -236 0 -85 -15 -125 -74 -202 -17 -22 -32 -42 -33 -44
-11 -17 -10 24 2 154 8 83 19 215 25 295 6 80 13 152 17 160 3 8 7 44 9 80 4
68 21 229 29 267 5 20 8 21 38 11 17 -6 44 -20 59 -31z m-312 -59 c0 -10 -4
-18 -10 -18 -5 0 -10 15 -10 33 0 24 3 28 10 17 5 -8 10 -23 10 -32z m563 -83
c2 -33 -1 -68 -7 -78 -8 -13 -8 -20 3 -26 8 -6 12 -19 9 -35 -3 -14 0 -27 6
-29 7 -2 4 -13 -7 -30 -15 -23 -15 -27 -2 -27 19 0 19 -14 0 -30 -9 -7 -14
-19 -11 -27 3 -7 -3 -18 -13 -25 -10 -6 -16 -19 -14 -28 3 -10 0 -21 -6 -24
-6 -4 -11 -12 -11 -17 0 -6 5 -7 10 -4 13 8 13 -1 0 -26 -6 -10 -18 -19 -28
-19 -15 -1 -15 -3 3 -18 25 -21 29 -68 10 -96 -19 -26 -19 -36 0 -36 18 0 20
-31 3 -48 -9 -9 -8 -12 5 -12 24 0 21 -21 -3 -27 -11 -3 -20 -12 -20 -20 0 -9
6 -12 18 -8 15 4 19 0 20 -22 1 -16 3 -42 6 -60 3 -20 -1 -36 -9 -43 -8 -6
-11 -18 -8 -26 3 -10 -6 -18 -28 -26 -56 -19 -249 -118 -332 -170 -44 -27 -80
-48 -81 -46 -7 8 35 223 46 238 7 10 41 58 76 106 l63 89 -5 106 c-3 58 -8
129 -12 157 -8 63 10 106 71 173 33 36 42 51 38 71 -4 20 4 35 34 65 48 48
164 145 168 141 2 -2 5 -30 8 -63z m1837 -115 c0 -5 -5 -10 -11 -10 -5 0 -7 5
-4 10 3 6 8 10 11 10 2 0 4 -4 4 -10z m-2060 -43 c0 -8 -9 -22 -20 -32 -20
-18 -20 -18 -9 13 11 32 29 43 29 19z m2890 -42 c48 -29 270 -173 309 -202 5
-4 -33 -113 -69 -200 l-26 -62 -155 99 c-85 55 -165 107 -178 116 -13 9 -110
70 -215 135 -105 65 -200 125 -211 134 -19 14 -18 15 16 9 24 -4 39 -2 44 6 6
9 60 11 214 8 l206 -4 65 -39z m-2143 -67 c-3 -8 -6 -5 -6 6 -1 11 2 17 5 13
3 -3 4 -12 1 -19z m73 3 c0 -6 -4 -13 -10 -16 -5 -3 -10 1 -10 9 0 9 5 16 10
16 6 0 10 -4 10 -9z m-566 -133 c-3 -4 -11 -5 -19 -1 -21 7 -19 12 4 10 11 0
18 -5 15 -9z m676 -8 c0 -5 -4 -10 -10 -10 -5 0 -10 5 -10 10 0 6 5 10 10 10
6 0 10 -4 10 -10z m-650 -14 c0 -3 -4 -8 -10 -11 -5 -3 -10 -1 -10 4 0 6 5 11
10 11 6 0 10 -2 10 -4z m635 -16 c3 -5 1 -10 -4 -10 -6 0 -11 5 -11 10 0 6 2
10 4 10 3 0 8 -4 11 -10z m-710 -109 c-3 -6 -11 -11 -16 -11 -5 0 -4 6 3 14
14 16 24 13 13 -3z m484 -40 c-6 -18 -14 -30 -17 -27 -2 3 1 19 8 36 7 17 14
29 16 27 2 -2 -1 -18 -7 -36z m-59 20 c0 -6 -4 -13 -10 -16 -5 -3 -10 1 -10 9
0 9 5 16 10 16 6 0 10 -4 10 -9z m354 -25 c-3 -9 -10 -16 -15 -16 -6 0 -5 9 1
21 13 24 24 20 14 -5z m-291 -51 c-3 -9 -8 -14 -10 -11 -3 3 -2 9 2 15 9 16
15 13 8 -4z m-28 -405 c-3 -5 -11 -10 -16 -10 -6 0 -7 5 -4 10 3 6 11 10 16
10 6 0 7 -4 4 -10z m3788 -191 c74 1 226 -52 402 -141 28 -14 85 -40 127 -57
42 -18 82 -39 89 -47 16 -19 9 -18 -106 16 -115 34 -128 35 -158 15 -12 -7
-46 -15 -74 -17 -29 -2 -53 -5 -53 -8 0 -3 -23 -5 -51 -5 -43 0 -53 4 -65 25
l-15 25 6 -29 6 -29 -93 7 c-190 16 -469 -7 -739 -58 -41 -8 -76 -12 -78 -10
-7 7 -61 167 -61 182 0 6 12 12 26 12 26 0 37 2 214 44 210 49 324 67 396 60
43 -4 79 -2 94 5 22 10 20 11 -17 6 -29 -3 -43 -1 -43 6 0 9 23 10 83 5 45 -4
95 -8 110 -7z m236 -34 c46 -14 194 -85 188 -92 -4 -3 -59 18 -124 47 -146 65
-153 70 -64 45z"></path>
<path d="M4210 4681 c0 -5 5 -13 10 -16 6 -3 10 -2 10 4 0 5 -4 13 -10 16 -5
3 -10 2 -10 -4z"></path>
<path d="M3105 4780 c-117 -20 -156 -34 -195 -68 -54 -46 -73 -83 -64 -130 14
-82 36 -150 69 -219 52 -111 88 -158 135 -177 98 -39 437 -69 725 -64 231 4
237 6 278 92 68 144 67 418 -2 492 -23 25 -114 49 -237 64 -118 14 -646 22
-709 10z m623 -21 c123 -9 155 -14 194 -35 26 -13 57 -24 68 -24 68 0 95 -68
94 -235 -1 -102 -5 -131 -27 -194 -35 -99 -52 -116 -137 -130 -164 -27 -686 5
-843 51 -63 19 -149 155 -198 313 -34 108 -18 170 41 170 38 1 39 -12 3 -18
-16 -2 -7 -3 18 0 26 2 66 14 90 28 24 14 51 28 59 31 8 4 31 14 50 22 19 9
46 19 60 23 40 11 369 10 528 -2z"></path>
<path d="M2885 4620 c-3 -5 -2 -10 4 -10 5 0 13 5 16 10 3 6 2 10 -4 10 -5 0
-13 -4 -16 -10z"></path>
<path d="M3410 4594 c-19 -8 -36 -11 -38 -6 -3 10 -87 -11 -106 -27 -6 -5 -24
-11 -41 -14 l-30 -4 33 -2 c18 0 45 5 60 13 15 7 41 16 57 20 l30 8 -27 -29
c-42 -44 -33 -50 12 -9 37 33 60 45 60 30 0 -3 -12 -15 -26 -26 -16 -13 -22
-23 -15 -27 7 -5 8 -18 1 -41 -6 -19 -10 -54 -10 -77 0 -23 -4 -45 -10 -48 -5
-3 -10 -15 -10 -26 0 -11 -10 -24 -22 -29 -18 -7 -19 -9 -5 -9 10 -1 20 -8 23
-16 4 -8 16 -15 28 -14 20 0 20 1 -2 10 -29 11 -18 32 14 26 14 -2 27 0 30 4
7 12 155 11 284 -1 58 -5 131 -12 162 -14 32 -3 63 -8 70 -12 7 -4 23 -9 36
-10 19 -2 22 1 16 19 -6 19 -5 20 9 8 9 -7 22 -11 28 -9 9 3 7 9 -5 19 -39 33
-56 54 -76 95 -11 24 -25 44 -32 44 -6 0 -9 3 -6 6 12 11 47 -17 74 -61 27
-42 44 -56 44 -36 0 4 -16 29 -35 54 -19 25 -35 48 -35 51 0 12 -106 106 -135
120 -17 8 -90 19 -170 25 -175 14 -192 14 -235 -5z m35 -14 c3 -5 1 -10 -4
-10 -6 0 -11 5 -11 10 0 6 2 10 4 10 3 0 8 -4 11 -10z m175 -16 c0 -4 -13 -22
-30 -41 -27 -30 -30 -41 -30 -97 0 -45 5 -67 15 -76 9 -7 14 -15 11 -17 -2 -2
-52 -6 -110 -7 -77 -2 -106 0 -106 9 0 6 3 15 7 18 3 4 7 30 8 59 2 77 34 133
82 146 42 11 153 15 153 6z m140 -52 c0 -5 10 -14 23 -19 19 -9 20 -12 5 -18
-19 -7 -71 22 -62 36 7 11 34 12 34 1z m80 -55 c0 -7 -11 -14 -25 -15 -14 -1
-25 3 -25 8 0 6 9 10 21 10 13 0 18 4 13 12 -4 7 -3 8 4 4 7 -4 12 -13 12 -19z
m70 13 c0 -5 -7 -10 -16 -10 -8 0 -12 5 -9 10 3 6 10 10 16 10 5 0 9 -4 9 -10z
m-286 -87 c-7 -26 -2 -28 26 -10 17 10 22 9 29 -2 5 -8 16 -11 25 -8 8 3 18 2
21 -3 3 -5 13 -6 21 -3 13 5 15 1 9 -16 -6 -20 -4 -22 15 -16 16 5 20 4 15 -4
-8 -14 -123 -4 -144 13 -11 8 -13 8 -7 -1 4 -7 2 -13 -3 -13 -6 0 -11 9 -11
19 0 10 -7 21 -15 25 -23 8 -19 45 5 43 15 -1 18 -6 14 -24z m294 -23 c17 -28
32 -53 32 -57 0 -8 -104 -6 -128 2 -10 4 -5 16 17 42 17 21 31 43 31 50 0 24
15 12 48 -37z m-92 -8 c-23 -23 -31 -8 -9 17 10 13 19 17 22 10 2 -6 -4 -18
-13 -27z"></path>
<path d="M3655 4361 c-3 -5 -1 -12 5 -16 5 -3 10 1 10 9 0 18 -6 21 -15 7z"></path>
<path d="M3300 4485 c-7 -9 -8 -15 -2 -15 5 0 12 7 16 15 3 8 4 15 2 15 -2 0
-9 -7 -16 -15z"></path>
<path d="M3332 4370 c0 -14 2 -19 5 -12 2 6 2 18 0 25 -3 6 -5 1 -5 -13z"></path>
<path d="M3265 4370 c-3 -5 -1 -10 4 -10 6 0 11 5 11 10 0 6 -2 10 -4 10 -3 0
-8 -4 -11 -10z"></path>
<path d="M3227 4354 c-12 -13 -8 -20 21 -33 22 -9 24 -9 11 1 -9 7 -18 19 -20
26 -2 7 -8 10 -12 6z"></path>
<path d="M3300 4330 c0 -5 5 -10 10 -10 6 0 10 5 10 10 0 6 -4 10 -10 10 -5 0
-10 -4 -10 -10z"></path>
<path d="M2504 4088 c-5 -8 -2 -9 10 -5 27 11 50 -8 76 -62 29 -58 48 -69 25
-14 -32 76 -89 118 -111 81z"></path>
<path d="M4561 4084 c0 -11 3 -14 6 -6 3 7 2 16 -1 19 -3 4 -6 -2 -5 -13z"></path>
<path d="M2630 3936 c0 -8 4 -17 9 -20 5 -4 7 3 4 14 -6 23 -13 26 -13 6z"></path>
<path d="M2525 3919 c-55 -18 -125 -52 -125 -61 0 -5 17 0 38 10 20 11 60 27
89 36 l52 17 36 -28 c19 -15 37 -35 40 -43 3 -8 14 -21 26 -28 l22 -14 -22 30
c-11 17 -21 34 -21 39 -1 12 -69 53 -88 52 -9 0 -30 -5 -47 -10z"></path>
<path d="M4230 3900 c0 -5 5 -10 11 -10 5 0 7 5 4 10 -3 6 -8 10 -11 10 -2 0
-4 -4 -4 -10z"></path>
<path d="M2670 3757 l5 -52 3 44 c2 24 0 47 -5 52 -4 4 -6 -15 -3 -44z"></path>
<path d="M3024 3558 c9 -16 22 -38 30 -50 8 -13 27 -55 41 -94 25 -67 25 -74
12 -107 -13 -30 -23 -37 -79 -54 -74 -23 -91 -17 -78 29 12 41 -12 102 -37 94
-10 -3 -47 -10 -83 -16 -89 -16 -112 -26 -150 -65 -33 -34 -37 -67 -8 -73 12
-2 15 2 11 18 -5 19 -3 20 23 10 37 -14 76 -5 153 37 69 37 88 33 70 -16 -15
-37 12 -54 71 -46 83 13 130 55 130 119 0 32 -69 183 -100 216 l-22 25 16 -27z"></path>
<path d="M2290 3291 c0 -10 72 -41 95 -41 18 0 20 -16 3 -24 -7 -3 -3 -3 9 0
15 3 39 -6 75 -31 56 -39 55 -39 188 -19 38 6 78 30 67 41 -4 3 -15 -2 -26
-11 -15 -13 -38 -17 -102 -18 l-84 -1 -83 56 c-54 37 -94 57 -113 57 -16 0
-29 -4 -29 -9z"></path>
<path d="M2903 2971 c-106 -13 -138 -20 -163 -39 -24 -18 -49 -25 -105 -29
-65 -5 -77 -3 -104 17 -23 16 -35 19 -44 11 -7 -5 -42 -21 -77 -33 -60 -22
-66 -26 -96 -82 -36 -67 -49 -123 -33 -143 6 -7 9 -18 6 -25 -3 -7 -12 -30
-21 -50 l-16 -38 47 -24 c27 -13 59 -27 73 -31 14 -4 61 -20 105 -37 l80 -30
155 7 c85 4 182 9 215 10 50 1 94 16 255 82 217 90 310 132 310 140 0 6 -100
99 -195 182 -86 76 -183 131 -226 130 -19 -1 -93 -9 -166 -18z m240 -22 c77
-39 307 -234 307 -260 0 -22 -102 -7 -211 30 -64 22 -142 44 -175 50 -74 14
-196 5 -297 -21 -63 -17 -91 -19 -145 -13 -37 5 -103 9 -147 9 -69 0 -85 -3
-115 -25 -19 -13 -38 -28 -41 -33 -9 -11 -29 1 -29 17 0 7 16 45 35 85 34 71
36 73 102 103 l67 30 37 -20 c57 -32 179 -23 222 17 17 16 49 24 132 35 160
22 208 21 258 -4z m-54 -204 c36 -9 110 -31 166 -50 56 -19 115 -35 131 -36
23 0 10 -10 -64 -45 -52 -24 -133 -57 -180 -73 -48 -16 -113 -39 -145 -50 -48
-18 -90 -23 -245 -28 -139 -4 -198 -3 -227 7 -92 29 -245 93 -245 101 0 23 42
88 74 117 41 36 124 51 177 33 18 -6 49 -11 70 -11 22 0 39 -4 39 -9 0 -5 34
2 76 15 133 42 270 53 373 29z"></path>
<path d="M4017 2799 c4 -13 8 -18 11 -10 2 7 -1 18 -6 23 -8 8 -9 4 -5 -13z"></path>
<path d="M4060 2713 c0 -5 5 -15 10 -23 8 -12 10 -11 10 8 0 12 -4 22 -10 22
-5 0 -10 -3 -10 -7z"></path>
<path d="M4040 2656 c0 -13 7 -26 15 -30 8 -3 15 -12 15 -20 0 -8 5 -18 10
-21 6 -4 10 8 10 28 0 31 -3 34 -22 29 -18 -4 -20 -2 -16 16 4 12 2 22 -3 22
-5 0 -9 -11 -9 -24z"></path>
<path d="M4001 2654 c0 -11 3 -14 6 -6 3 7 2 16 -1 19 -3 4 -6 -2 -5 -13z"></path>
<path d="M3961 2604 c0 -11 3 -14 6 -6 3 7 2 16 -1 19 -3 4 -6 -2 -5 -13z"></path>
<path d="M4102 2579 c2 -7 10 -15 17 -17 8 -3 12 1 9 9 -2 7 -10 15 -17 17 -8
3 -12 -1 -9 -9z"></path>
<path d="M3998 2538 c-3 -7 5 -24 18 -38 27 -28 28 -26 13 19 -11 32 -24 40
-31 19z"></path>
<path d="M4030 2547 c0 -4 7 -19 16 -32 8 -13 14 -34 12 -46 -2 -12 2 -24 7
-26 6 -2 10 17 10 46 0 27 -3 44 -8 38 -5 -9 -12 -6 -22 7 -8 11 -15 17 -15
13z"></path>
<path d="M4100 2540 c0 -5 5 -10 11 -10 5 0 7 5 4 10 -3 6 -8 10 -11 10 -2 0
-4 -4 -4 -10z"></path>
<path d="M3916 2525 c-3 -8 -1 -15 4 -15 6 0 10 5 10 11 0 5 5 7 12 3 7 -4 8
-3 4 4 -10 16 -23 15 -30 -3z"></path>
<path d="M4120 2511 c0 -5 5 -13 10 -16 6 -3 10 -2 10 4 0 5 -4 13 -10 16 -5
3 -10 2 -10 -4z"></path>
<path d="M3995 2480 c3 -5 8 -10 11 -10 2 0 4 5 4 10 0 6 -5 10 -11 10 -5 0
-7 -4 -4 -10z"></path>
<path d="M2410 2369 c0 -5 5 -7 10 -4 6 3 10 8 10 11 0 2 -4 4 -10 4 -5 0 -10
-5 -10 -11z"></path>
<path d="M2910 2350 c0 -5 5 -10 11 -10 5 0 7 5 4 10 -3 6 -8 10 -11 10 -2 0
-4 -4 -4 -10z"></path>
<path d="M3300 2120 c0 -5 5 -10 11 -10 5 0 7 5 4 10 -3 6 -8 10 -11 10 -2 0
-4 -4 -4 -10z"></path>
<path d="M1955 4540 c-3 -5 -16 -10 -28 -11 -20 -1 -20 -2 3 -8 30 -9 78 8 58
21 -17 10 -26 10 -33 -2z"></path>
<path d="M2055 4198 c-27 -5 -54 -14 -60 -20 -7 -7 -1 -8 20 -4 17 3 47 8 68
12 20 3 37 10 37 15 0 5 -3 8 -7 8 -5 -1 -30 -6 -58 -11z"></path>
<path d="M1291 4364 c0 -11 3 -14 6 -6 3 7 2 16 -1 19 -3 4 -6 -2 -5 -13z"></path>
<path d="M1271 4265 c-7 -44 -14 -88 -16 -98 -2 -9 1 -15 6 -11 5 3 9 18 9 34
0 16 5 52 11 80 6 27 9 55 7 62 -3 7 -10 -24 -17 -67z"></path>
<path d="M1262 3970 c0 -19 2 -27 5 -17 2 9 2 25 0 35 -3 9 -5 1 -5 -18z"></path>
<path d="M1261 3844 c0 -43 5 -88 10 -99 6 -13 7 13 3 75 -3 52 -8 97 -10 99
-2 2 -4 -31 -3 -75z"></path>
<path d="M4567 3814 c12 -17 30 -37 40 -45 13 -10 12 -6 -4 17 -12 17 -30 37
-40 45 -13 10 -12 6 4 -17z"></path>
<path d="M4538 3808 c-3 -7 11 -26 30 -43 l36 -30 -29 43 c-31 47 -31 47 -37
30z"></path>
<path d="M822 3820 c0 -14 2 -19 5 -12 2 6 2 18 0 25 -3 6 -5 1 -5 -13z"></path>
<path d="M4845 3860 c3 -5 8 -10 11 -10 2 0 4 5 4 10 0 6 -5 10 -11 10 -5 0
-7 -4 -4 -10z"></path>
<path d="M4830 3841 c0 -5 7 -15 17 -22 15 -13 15 -12 4 9 -12 23 -21 28 -21
13z"></path>
<path d="M1588 3633 c7 -3 16 -2 19 1 4 3 -2 6 -13 5 -11 0 -14 -3 -6 -6z"></path>
<path d="M6290 1196 c0 -2 8 -10 18 -17 15 -13 16 -12 3 4 -13 16 -21 21 -21
13z"></path>
<path d="M3470 6489 c65 -63 305 -271 388 -336 54 -43 27 -13 -44 47 -16 14
-85 74 -154 134 -69 59 -152 131 -185 158 l-60 50 55 -53z"></path>
<path d="M3790 6506 c0 -2 8 -10 18 -17 15 -13 16 -12 3 4 -13 16 -21 21 -21
13z"></path>
<path d="M2861 6396 c8 -6 99 -35 99 -31 0 7 -71 35 -88 35 -8 0 -13 -2 -11
-4z"></path>
<path d="M2970 6356 c0 -2 7 -7 16 -10 8 -3 12 -2 9 4 -6 10 -25 14 -25 6z"></path>
<path d="M3130 6270 c63 -32 120 -59 125 -59 6 0 -42 26 -105 59 -63 33 -119
60 -125 60 -5 0 42 -27 105 -60z"></path>
<path d="M3810 6235 c0 -3 28 -32 62 -63 85 -78 148 -143 148 -153 0 -5 5 -9
11 -9 19 0 -29 56 -125 144 -53 48 -96 85 -96 81z"></path>
<path d="M4100 5646 c0 -2 8 -10 18 -17 15 -13 16 -12 3 4 -13 16 -21 21 -21
13z"></path>
<path d="M4146 5607 c2 -7 28 -28 55 -47 56 -38 253 -203 264 -220 3 -5 16
-15 28 -21 25 -13 -64 76 -138 137 -84 70 -214 164 -209 151z"></path>
<path d="M4520 5298 c0 -4 12 -20 28 -36 15 -16 53 -57 86 -91 32 -34 60 -61
61 -59 2 2 -37 46 -86 98 -48 52 -88 92 -89 88z"></path>
<path d="M4710 5092 c0 -12 19 -26 26 -19 2 2 -2 10 -11 17 -9 8 -15 8 -15 2z"></path>
<path d="M5552 4910 c0 -14 2 -19 5 -12 2 6 2 18 0 25 -3 6 -5 1 -5 -13z"></path>
<path d="M5139 4878 c0 -13 -3 -41 -5 -63 -4 -35 -1 -45 26 -70 31 -30 42 -58
13 -34 -9 8 -4 -4 10 -26 41 -61 44 -71 61 -205 13 -97 24 -138 48 -187 17
-35 32 -63 34 -63 10 0 -5 52 -28 90 -28 49 -33 71 -47 207 -5 50 -15 102 -22
115 -7 13 -12 27 -11 31 1 4 -3 17 -9 28 -7 14 -7 24 0 32 14 18 -1 74 -33
125 -30 48 -36 51 -37 20z m57 -105 c1 -39 -5 -41 -35 -9 -18 19 -21 30 -15
65 l7 43 21 -33 c11 -18 21 -48 22 -66z"></path>
<path d="M5562 4855 c0 -16 2 -22 5 -12 2 9 2 23 0 30 -3 6 -5 -1 -5 -18z"></path>
<path d="M5572 4785 c0 -16 2 -22 5 -12 2 9 2 23 0 30 -3 6 -5 -1 -5 -18z"></path>
<path d="M5378 4793 c7 -3 16 -2 19 1 4 3 -2 6 -13 5 -11 0 -14 -3 -6 -6z"></path>
<path d="M5450 4790 c0 -5 5 -10 11 -10 5 0 7 5 4 10 -3 6 -8 10 -11 10 -2 0
-4 -4 -4 -10z"></path>
<path d="M5386 4737 c-3 -18 -7 -65 -9 -105 -3 -40 -8 -76 -12 -80 -4 -4 -19
8 -34 26 -15 17 -35 32 -44 32 -24 0 -21 -17 3 -23 30 -8 24 -25 -7 -20 -24 4
-25 3 -10 -7 9 -6 25 -9 35 -6 10 3 30 -6 52 -25 19 -17 51 -43 70 -58 19 -14
40 -30 46 -36 7 -5 47 -39 90 -75 43 -36 115 -98 161 -137 47 -40 88 -73 93
-73 4 0 13 -13 19 -30 5 -16 8 -30 5 -30 -3 0 7 -20 21 -44 21 -37 24 -49 15
-65 -6 -12 -15 -21 -20 -21 -5 0 -13 -15 -19 -32 -5 -18 -30 -91 -54 -163 -73
-212 -130 -477 -132 -610 -1 -91 -4 -104 -29 -141 -44 -67 -117 -120 -184
-133 -65 -13 -92 -32 -176 -131 -71 -82 -73 -97 -4 -22 108 117 145 142 212
142 31 0 82 37 145 107 l60 65 -6 77 c-4 59 0 107 21 216 34 177 68 314 108
435 44 136 42 133 77 112 53 -33 102 -83 117 -120 l14 -37 -5 35 c-6 38 -49
89 -105 123 -50 30 -52 37 -19 74 34 39 33 37 15 71 -7 15 -24 50 -36 78 -12
29 -33 58 -49 67 -14 8 -55 41 -90 74 -35 32 -74 65 -86 73 -38 25 -105 89
-105 100 0 5 -8 10 -17 10 -10 0 -44 24 -76 53 l-58 52 13 108 c11 102 13 107
36 107 12 0 33 -11 46 -25 l23 -25 -10 33 c-10 29 -14 32 -53 34 -41 2 -43 1
-48 -30z"></path>
<path d="M5292 4730 c0 -19 2 -27 5 -17 2 9 2 25 0 35 -3 9 -5 1 -5 -18z"></path>
<path d="M5583 4710 c0 -25 2 -35 4 -22 2 12 2 32 0 45 -2 12 -4 2 -4 -23z"></path>
<path d="M5546 4677 c3 -10 9 -15 12 -12 3 3 0 11 -7 18 -10 9 -11 8 -5 -6z"></path>
<path d="M5525 4656 c14 -23 16 -44 11 -115 -6 -91 -2 -99 9 -18 5 39 11 50
31 57 25 10 29 30 13 65 -7 16 -8 13 -6 -15 1 -26 -2 -35 -15 -38 -13 -3 -18
3 -18 21 0 14 -9 35 -21 48 l-21 24 17 -29z"></path>
<path d="M5302 4645 c0 -16 2 -22 5 -12 2 9 2 23 0 30 -3 6 -5 -1 -5 -18z"></path>
<path d="M5215 4360 c-3 -5 -2 -10 4 -10 5 0 13 5 16 10 3 6 2 10 -4 10 -5 0
-13 -4 -16 -10z"></path>
<path d="M5184 4304 c-6 -22 0 -32 28 -59 20 -17 48 -50 63 -73 25 -39 28 -50
31 -166 1 -69 -1 -138 -5 -154 -5 -18 -3 -64 5 -118 7 -49 13 -102 14 -117 0
-18 21 -59 55 -108 49 -71 55 -84 49 -115 -5 -29 -15 -39 -53 -59 -75 -38
-114 -88 -171 -220 -29 -66 -63 -142 -75 -170 -95 -203 -123 -265 -120 -265 9
0 82 142 131 254 56 128 145 299 172 330 10 10 42 35 72 55 50 33 55 40 58 78
3 37 -4 52 -47 116 -60 88 -67 113 -23 86 12 -7 28 -8 52 -1 l35 10 -42 1
c-42 1 -51 8 -35 27 22 25 92 222 92 258 0 21 47 97 68 110 6 3 26 7 46 8 20
2 36 7 36 12 0 4 -9 6 -20 3 -15 -4 -20 0 -20 15 0 16 -3 18 -14 9 -24 -20
-62 3 -69 42 -4 25 -21 49 -62 87 -90 86 -106 90 -27 7 68 -70 73 -79 68 -109
-3 -18 -3 -28 0 -21 3 7 14 2 30 -14 14 -14 22 -28 17 -32 -22 -16 -62 -90
-68 -126 -3 -22 -12 -50 -19 -63 -11 -21 -12 -18 -12 30 1 31 8 63 18 78 9 14
19 45 22 70 5 44 5 44 -5 10 -22 -70 -32 -90 -45 -90 -8 0 -14 5 -14 11 0 6
-15 43 -34 83 -47 98 -68 156 -56 156 6 0 10 5 10 11 0 6 -6 9 -14 6 -13 -5
-116 90 -116 107 0 5 6 4 13 -2 8 -7 16 -6 26 5 11 12 10 14 -5 11 -11 -2 -18
2 -16 10 4 24 -18 11 -24 -14z m205 -384 c28 -65 26 -78 -5 -46 -15 14 -31 26
-36 26 -5 0 4 -13 20 -30 17 -16 36 -46 42 -66 11 -31 9 -42 -14 -94 -14 -31
-26 -62 -26 -68 0 -18 -29 -22 -34 -4 -15 52 -26 182 -19 222 5 25 8 66 7 92
-1 46 -1 46 21 32 13 -8 32 -37 44 -64z"></path>
<path d="M5260 4285 c7 -9 15 -13 17 -11 7 7 -7 26 -19 26 -6 0 -6 -6 2 -15z"></path>
<path d="M5270 4235 c16 -20 50 -39 50 -28 0 4 -14 16 -32 26 -26 15 -29 15
-18 2z"></path>
<path d="M5740 4162 c-64 -20 -64 -21 -44 -43 11 -12 37 -35 59 -52 38 -29 38
-28 -9 19 l-48 48 27 9 c23 8 35 4 74 -22 l46 -32 -35 31 c-51 45 -54 47 -70
42z"></path>
<path d="M5750 4121 c0 -5 8 -12 18 -16 9 -3 32 -24 50 -47 17 -22 32 -36 32
-31 0 4 -14 25 -31 46 -32 39 -69 65 -69 48z"></path>
<path d="M5762 4023 c18 -15 41 -33 51 -41 10 -9 17 -11 17 -4 0 9 -83 72 -96
72 -3 0 9 -12 28 -27z"></path>
<path d="M5400 3993 c8 -3 19 -11 23 -17 6 -7 7 -6 4 4 -2 8 -12 16 -23 17
-13 2 -15 1 -4 -4z"></path>
<path d="M5852 3837 c-15 -18 51 -92 101 -112 20 -8 37 -13 37 -10 0 2 -17 13
-37 24 -49 25 -114 91 -90 91 9 0 17 5 17 10 0 14 -16 12 -28 -3z"></path>
<path d="M5938 3790 c36 -52 50 -52 16 0 -15 22 -31 40 -35 40 -5 0 4 -18 19
-40z"></path>
<path d="M920 3710 c-41 -24 -46 -31 -52 -75 -4 -27 -5 -52 -2 -57 12 -20 19
-4 19 43 0 54 -4 49 84 96 1 1 1 6 0 11 -2 5 -24 -3 -49 -18z"></path>
<path d="M5906 3720 c6 -6 33 -19 60 -29 87 -33 84 -69 -6 -72 -37 -2 -39 -3
-12 -6 32 -4 41 -16 22 -28 -5 -3 -10 -13 -10 -21 0 -8 -9 -35 -20 -59 -36
-78 -50 -156 -60 -335 -17 -279 -18 -284 -74 -368 -40 -59 -60 -79 -100 -99
-71 -35 -159 -100 -285 -207 -59 -50 -153 -127 -209 -170 -56 -44 -99 -82 -97
-85 3 -2 22 9 43 26 20 16 66 52 102 79 36 27 101 80 145 118 123 106 232 186
296 218 49 24 67 42 114 108 30 44 55 90 55 103 0 37 12 87 20 87 4 0 24 -24
45 -54 l37 -55 -7 -84 -7 -84 -63 -48 c-74 -56 -104 -91 -159 -188 -23 -40
-52 -89 -64 -109 -13 -21 -22 -38 -19 -38 7 0 127 185 127 195 1 15 60 78 67
71 3 -3 0 -19 -7 -35 -6 -17 -10 -36 -7 -43 4 -8 6 -6 6 5 2 35 51 115 93 150
l43 36 3 100 4 101 -41 42 c-23 24 -44 54 -48 67 -6 25 1 181 15 318 7 59 20
109 48 175 21 51 43 96 49 100 5 4 16 12 24 17 13 8 13 16 1 53 -17 54 -14 52
-39 37 -17 -11 -26 -10 -58 5 -21 10 -33 13 -27 6z"></path>
<path d="M901 3634 c0 -11 3 -14 6 -6 3 7 2 16 -1 19 -3 4 -6 -2 -5 -13z"></path>
<path d="M5416 3635 c-11 -8 -15 -15 -9 -15 6 0 16 7 23 15 16 19 11 19 -14 0z"></path>
<path d="M5225 3543 c4 -10 10 -28 12 -41 6 -24 23 -41 23 -22 0 16 -28 80
-36 80 -3 0 -3 -8 1 -17z"></path>
<path d="M5241 3444 c0 -11 3 -14 6 -6 3 7 2 16 -1 19 -3 4 -6 -2 -5 -13z"></path>
<path d="M1110 3200 c-8 -5 -12 -12 -9 -15 4 -3 12 1 19 10 14 17 11 19 -10 5z"></path>
<path d="M1031 3039 c-13 -11 -22 -21 -20 -24 3 -2 18 7 34 20 17 13 26 24 20
24 -5 0 -21 -9 -34 -20z"></path>
<path d="M940 3010 c-9 -6 -10 -10 -3 -10 6 0 15 5 18 10 8 12 4 12 -15 0z"></path>
<path d="M1210 2884 c-78 -48 -209 -155 -270 -220 -19 -20 8 0 60 46 52 46
129 105 170 131 113 73 136 89 125 89 -6 0 -44 -21 -85 -46z"></path>
<path d="M1224 2848 c-64 -56 -124 -115 -99 -97 11 7 38 29 61 49 22 19 56 47
75 62 19 15 29 28 23 28 -6 0 -33 -19 -60 -42z"></path>
<path d="M774 2869 c-3 -6 -25 -20 -48 -30 -25 -11 -33 -19 -21 -19 11 1 38
14 59 30 22 17 35 30 28 30 -6 0 -14 -5 -18 -11z"></path>
<path d="M1066 2747 c-83 -73 -176 -192 -176 -225 0 -15 -3 -36 -6 -48 -7 -26
-107 -86 -241 -144 -56 -24 -100 -46 -98 -48 2 -2 41 12 87 31 46 19 92 38
103 42 11 3 52 25 92 48 68 39 72 44 73 77 0 64 31 111 157 238 44 45 78 82
75 82 -4 -1 -34 -24 -66 -53z"></path>
<path d="M1314 2698 l-19 -23 23 19 c21 18 27 26 19 26 -2 0 -12 -10 -23 -22z"></path>
<path d="M1015 2629 c-4 -6 -5 -12 -2 -15 2 -3 7 2 10 11 7 17 1 20 -8 4z"></path>
<path d="M1329 2543 c-13 -16 -12 -17 4 -4 9 7 17 15 17 17 0 8 -8 3 -21 -13z"></path>
<path d="M1530 2545 c0 -5 5 -17 10 -25 5 -8 10 -10 10 -5 0 6 -5 17 -10 25
-5 8 -10 11 -10 5z"></path>
<path d="M5818 2465 c-3 -15 -1 -25 7 -25 14 0 135 -117 237 -230 77 -85 78
-86 173 -118 53 -18 112 -31 133 -30 l37 1 -40 6 c-90 14 -212 62 -246 97 -18
18 -30 36 -28 39 3 2 43 -2 90 -10 46 -8 120 -18 163 -22 l80 -8 18 -60 c10
-33 29 -113 44 -177 l26 -118 -46 -62 c-25 -35 -86 -105 -135 -156 l-89 -94
-183 22 c-276 32 -295 37 -349 102 -25 29 -98 106 -162 171 -65 65 -118 121
-118 124 0 10 308 -29 383 -48 32 -8 42 -18 57 -52 10 -23 17 -43 16 -45 -2
-1 -23 6 -47 16 -24 11 -62 27 -84 36 l-40 17 25 -20 c14 -12 29 -21 34 -21 5
0 36 -14 68 -30 33 -17 63 -29 66 -26 3 3 -7 34 -22 70 l-27 63 -72 12 c-150
23 -273 41 -304 43 l-32 3 86 90 c153 161 263 298 262 325 -1 20 -2 21 -6 6
-9 -34 -161 -214 -291 -345 l-125 -124 -66 71 c-76 82 -194 188 -225 203 -12
5 -1 -7 24 -28 94 -78 257 -246 295 -304 22 -34 44 -63 49 -66 11 -7 3 6 -37
65 -28 42 -30 72 -6 72 19 0 241 -230 279 -288 26 -41 42 -55 74 -64 39 -12
36 -13 -79 -19 -66 -3 -150 -7 -187 -8 -42 0 -68 -5 -68 -12 0 -7 9 -9 23 -5
12 3 126 8 252 12 182 5 257 3 360 -10 72 -8 153 -18 180 -21 61 -8 184 -31
206 -40 10 -3 20 -2 23 4 8 12 -8 16 -117 32 -48 7 -86 16 -85 20 2 4 39 45
83 91 44 46 102 114 128 151 l48 67 -17 73 c-25 108 -61 239 -72 269 -12 28
-16 29 -157 43 -33 3 -96 13 -140 21 l-80 15 -94 97 c-52 53 -107 112 -122
129 l-27 33 -4 -25z"></path>
<path d="M1063 2448 c-6 -7 -13 -22 -16 -33 -6 -17 -4 -17 13 4 11 13 20 27
20 32 0 12 -6 11 -17 -3z"></path>
<path d="M952 2420 c0 -19 2 -27 5 -17 2 9 2 25 0 35 -3 9 -5 1 -5 -18z"></path>
<path d="M3884 2441 c3 -5 18 -11 33 -13 16 -3 37 -8 48 -12 11 -3 2 3 -20 14
-42 21 -70 26 -61 11z"></path>
<path d="M5805 2409 c-4 -6 -5 -12 -2 -15 2 -3 7 2 10 11 7 17 1 20 -8 4z"></path>
<path d="M3898 2403 c7 -3 16 -2 19 1 4 3 -2 6 -13 5 -11 0 -14 -3 -6 -6z"></path>
<path d="M1371 2384 c0 -11 3 -14 6 -6 3 7 2 16 -1 19 -3 4 -6 -2 -5 -13z"></path>
<path d="M3777 2278 c-85 -124 -107 -160 -107 -175 0 -4 20 24 43 62 69 110
138 206 153 212 8 3 14 9 14 14 0 27 -28 -3 -103 -113z"></path>
<path d="M5610 2277 c-70 -86 -103 -131 -87 -118 23 18 121 141 116 145 -2 2
-15 -10 -29 -27z"></path>
<path d="M1436 2276 c3 -8 13 -17 22 -21 13 -5 13 -2 -3 15 -21 24 -26 25 -19
6z"></path>
<path d="M493 2273 c9 -2 23 -2 30 0 6 3 -1 5 -18 5 -16 0 -22 -2 -12 -5z"></path>
<path d="M220 2260 c8 -5 22 -9 30 -9 10 0 8 3 -5 9 -27 12 -43 12 -25 0z"></path>
<path d="M408 2263 c12 -2 32 -2 45 0 12 2 2 4 -23 4 -25 0 -35 -2 -22 -4z"></path>
<path d="M1390 2266 c0 -2 7 -7 16 -10 8 -3 12 -2 9 4 -6 10 -25 14 -25 6z"></path>
<path d="M305 2241 c35 -15 91 -24 80 -13 -5 5 -30 12 -55 15 -28 4 -37 3 -25
-2z"></path>
<path d="M498 2243 c7 -3 16 -2 19 1 4 3 -2 6 -13 5 -11 0 -14 -3 -6 -6z"></path>
<path d="M1490 2240 c8 -5 20 -10 25 -10 6 0 3 5 -5 10 -8 5 -19 10 -25 10 -5
0 -3 -5 5 -10z"></path>
<path d="M415 2230 c-14 -7 -8 -8 20 -3 22 3 42 7 44 9 9 8 -45 2 -64 -6z"></path>
<path d="M1467 2219 c7 -7 15 -10 18 -7 3 3 -2 9 -12 12 -14 6 -15 5 -6 -5z"></path>
<path d="M4970 2213 c35 -11 45 -14 50 -14 3 -1 10 -4 15 -7 6 -4 2 1 -8 11
-11 9 -31 17 -46 16 -14 0 -19 -3 -11 -6z"></path>
<path d="M1465 2190 c11 -5 27 -9 35 -9 9 0 8 4 -5 9 -11 5 -27 9 -35 9 -9 0
-8 -4 5 -9z"></path>
<path d="M932 2145 c-17 -37 -14 -45 4 -12 9 16 14 31 11 33 -2 2 -9 -7 -15
-21z"></path>
<path d="M972 2145 c-17 -37 -14 -45 4 -12 9 16 14 31 11 33 -2 2 -9 -7 -15
-21z"></path>
<path d="M935 2074 c-9 -14 -14 -28 -12 -31 3 -3 13 9 22 26 19 38 14 41 -10
5z"></path>
<path d="M5130 2087 c0 -3 20 -25 45 -48 61 -57 204 -222 243 -283 18 -27 32
-45 32 -40 0 15 -48 82 -116 164 -66 79 -204 219 -204 207z"></path>
<path d="M3660 2075 c0 -6 19 -30 43 -53 42 -41 44 -42 111 -42 37 0 122 11
188 25 l122 25 35 -23 c20 -13 89 -49 153 -80 106 -52 124 -65 193 -139 41
-45 99 -117 127 -160 53 -80 77 -107 37 -40 -52 86 -100 151 -158 214 -54 58
-78 75 -194 133 -72 37 -147 76 -165 87 l-32 20 -121 -26 c-67 -14 -151 -26
-188 -26 l-66 0 -42 47 c-23 27 -42 43 -43 38z"></path>
<path d="M5090 1998 c-31 -85 -34 -97 -20 -75 14 22 51 129 46 134 -2 2 -13
-25 -26 -59z"></path>
<path d="M905 2009 c-4 -6 -5 -12 -2 -15 2 -3 7 2 10 11 7 17 1 20 -8 4z"></path>
<path d="M935 1989 c-4 -6 -5 -12 -2 -15 2 -3 7 2 10 11 7 17 1 20 -8 4z"></path>
<path d="M5610 1970 c8 -5 58 -19 110 -31 222 -49 291 -73 398 -137 29 -18 56
-32 59 -32 4 0 18 -10 31 -22 16 -15 23 -18 20 -8 -5 15 -78 61 -191 120 -32
17 -113 43 -185 60 -70 17 -150 37 -178 45 -60 18 -87 20 -64 5z"></path>
<path d="M923 1885 c0 -27 2 -38 4 -22 2 15 2 37 0 50 -2 12 -4 0 -4 -28z"></path>
<path d="M5036 1859 c-9 -23 -15 -43 -13 -46 3 -2 12 15 21 38 9 23 15 43 13
46 -3 2 -12 -15 -21 -38z"></path>
<path d="M780 1849 c0 -5 5 -7 10 -4 6 3 10 8 10 11 0 2 -4 4 -10 4 -5 0 -10
-5 -10 -11z"></path>
<path d="M6124 1842 c3 -6 34 -29 69 -51 56 -37 59 -38 25 -8 -40 35 -105 76
-94 59z"></path>
<path d="M4019 1784 c30 -27 71 -64 90 -82 20 -18 88 -65 151 -104 63 -40 148
-94 188 -121 41 -27 76 -47 78 -44 4 4 -253 173 -329 216 -23 13 -77 58 -120
100 -43 42 -86 78 -95 80 -9 1 7 -19 37 -45z"></path>
<path d="M5680 1819 c33 -22 92 -50 97 -45 3 2 -18 16 -46 30 -51 26 -79 34
-51 15z"></path>
<path d="M3718 1813 c7 -3 16 -2 19 1 4 3 -2 6 -13 5 -11 0 -14 -3 -6 -6z"></path>
<path d="M3768 1813 c12 -2 32 -2 45 0 12 2 2 4 -23 4 -25 0 -35 -2 -22 -4z"></path>
<path d="M3595 1801 c-3 -6 10 -7 32 -4 50 8 55 13 10 13 -20 0 -38 -4 -42 -9z"></path>
<path d="M3736 1751 c-4 -6 0 -11 8 -11 9 0 16 -5 16 -11 0 -23 -97 -133 -181
-205 -88 -75 -115 -104 -61 -65 58 41 218 200 237 235 18 33 18 37 3 52 -10
11 -18 12 -22 5z"></path>
<path d="M3571 1729 c-41 -11 -86 -27 -100 -35 -14 -8 -17 -12 -6 -8 11 4 65
20 120 35 55 15 91 28 80 28 -11 0 -53 -9 -94 -20z"></path>
<path d="M4628 1710 c16 -25 53 -91 83 -147 29 -56 55 -100 57 -98 7 7 -112
226 -141 258 l-28 32 29 -45z"></path>
<path d="M933 1700 c0 -25 2 -35 4 -22 2 12 2 32 0 45 -2 12 -4 2 -4 -23z"></path>
<path d="M761 1712 c-17 -31 -13 -40 5 -14 9 13 14 26 11 29 -3 2 -10 -4 -16
-15z"></path>
<path d="M5425 1670 c-4 -17 -5 -34 -2 -36 2 -3 7 10 11 27 8 42 0 50 -9 9z"></path>
<path d="M5481 1684 c0 -11 3 -14 6 -6 3 7 2 16 -1 19 -3 4 -6 -2 -5 -13z"></path>
<path d="M5466 1619 c-8 -42 0 -50 9 -9 4 17 5 34 2 36 -2 3 -7 -10 -11 -27z"></path>
<path d="M3235 1582 c-115 -60 -167 -92 -149 -92 5 0 14 4 19 9 6 4 64 36 130
71 125 65 134 70 119 70 -5 0 -59 -26 -119 -58z"></path>
<path d="M2050 1540 c-9 -16 -8 -20 5 -20 8 0 15 9 15 20 0 11 -2 20 -5 20 -2
0 -9 -9 -15 -20z"></path>
<path d="M5377 1521 c-4 -17 -3 -21 5 -13 5 5 8 16 6 23 -3 8 -7 3 -11 -10z"></path>
<path d="M891 1497 c-6 -15 -20 -46 -32 -69 -12 -24 -17 -38 -11 -33 17 16 64
116 58 122 -3 3 -10 -6 -15 -20z"></path>
<path d="M928 1433 c-18 -21 -31 -43 -25 -43 2 0 13 14 25 30 25 33 24 41 0
13z"></path>
<path d="M4541 1423 c1 -10 68 -67 74 -62 2 2 -14 19 -36 37 -21 18 -39 30
-38 25z"></path>
<path d="M6215 1410 c3 -4 26 -13 52 -19 27 -7 57 -15 68 -18 11 -3 17 -3 14
1 -9 10 -139 44 -134 36z"></path>
<path d="M2623 1388 c-26 -28 -63 -89 -63 -103 1 -14 39 37 40 51 0 6 7 17 16
24 15 13 38 50 31 50 -2 0 -13 -10 -24 -22z"></path>
<path d="M855 1379 c-4 -6 -5 -12 -2 -15 2 -3 7 2 10 11 7 17 1 20 -8 4z"></path>
<path d="M1535 1350 c27 -12 43 -12 25 0 -8 5 -22 9 -30 9 -10 0 -8 -3 5 -9z"></path>
<path d="M4631 1347 c2 -2 39 -34 81 -70 42 -37 79 -67 81 -67 2 0 4 7 4 15 0
8 -4 12 -8 9 -5 -3 -23 8 -41 25 -76 69 -104 91 -112 91 -5 0 -7 -2 -5 -3z"></path>
<path d="M1580 1336 c0 -2 7 -7 16 -10 8 -3 12 -2 9 4 -6 10 -25 14 -25 6z"></path>
<path d="M828 1303 c-9 -10 -18 -29 -22 -43 l-6 -25 13 26 c6 14 18 33 26 43
18 22 8 21 -11 -1z"></path>
<path d="M1625 1310 c3 -5 11 -10 16 -10 6 0 7 5 4 10 -3 6 -11 10 -16 10 -6
0 -7 -4 -4 -10z"></path>
<path d="M1592 1294 c10 -10 20 -15 24 -12 3 4 -5 12 -18 18 -22 12 -22 12 -6
-6z"></path>
<path d="M3269 1273 l-24 -26 33 23 c33 25 38 30 24 30 -5 0 -19 -12 -33 -27z"></path>
<path d="M1520 1282 c0 -4 17 -28 37 -52 48 -56 236 -240 241 -236 1 2 -42 48
-96 102 -55 55 -118 121 -141 147 -22 27 -41 44 -41 39z"></path>
<path d="M4120 1283 c0 -6 8 -17 18 -24 16 -13 16 -13 2 6 -8 11 -16 22 -17
24 -2 2 -3 0 -3 -6z"></path>
<path d="M820 1209 c-12 -23 -20 -43 -18 -45 3 -2 14 17 26 41 27 56 20 60 -8
4z"></path>
<path d="M1650 1226 c0 -4 37 -46 83 -95 47 -51 104 -126 134 -177 66 -114 92
-146 54 -69 -41 84 -149 247 -160 241 -5 -3 -32 19 -60 50 -28 31 -51 53 -51
50z"></path>
<path d="M3196 1215 c-11 -8 -15 -15 -9 -15 6 0 16 7 23 15 16 19 11 19 -14 0z"></path>
<path d="M2126 1148 c-19 -40 -36 -84 -40 -98 l-6 -25 12 25 c41 88 76 170 72
170 -3 0 -20 -33 -38 -72z"></path>
<path d="M2181 1174 c-12 -26 -20 -48 -17 -51 2 -3 14 17 25 43 27 61 21 67
-8 8z"></path>
<path d="M4175 1210 c13 -22 108 -140 113 -140 5 0 -1 8 -62 85 -48 60 -62 76
-51 55z"></path>
<path d="M4810 1208 c0 -2 69 -70 152 -153 84 -82 133 -127 111 -100 -67 81
-264 270 -263 253z"></path>
<path d="M535 1149 c-44 -21 -73 -38 -65 -38 8 0 49 18 90 39 97 50 79 50 -25
-1z"></path>
<path d="M3149 1173 c-13 -16 -12 -17 4 -4 9 7 17 15 17 17 0 8 -8 3 -21 -13z"></path>
<path d="M1730 1166 c0 -2 8 -10 18 -17 15 -13 16 -12 3 4 -13 16 -21 21 -21
13z"></path>
<path d="M3215 1094 c-45 -48 -93 -112 -122 -164 -39 -70 -75 -114 -212 -254
-216 -219 -431 -421 -526 -492 -41 -31 -92 -73 -113 -93 -20 -20 -46 -42 -57
-49 -17 -11 -16 -11 5 -1 37 18 165 108 223 158 29 24 189 179 356 344 288
284 306 303 342 378 27 56 59 100 115 159 42 44 74 83 71 87 -4 3 -40 -29 -82
-73z"></path>
<path d="M786 1133 c-6 -14 -5 -15 5 -6 7 7 10 15 7 18 -3 3 -9 -2 -12 -12z"></path>
<path d="M397 1094 c-43 -23 -26 -27 18 -4 22 11 33 20 25 20 -8 -1 -28 -8
-43 -16z"></path>
<path d="M2135 1073 c-8 -20 -13 -38 -10 -41 3 -3 5 -3 5 0 0 3 7 22 15 42 8
20 13 36 10 36 -2 0 -12 -16 -20 -37z"></path>
<path d="M4971 1105 c0 -5 32 -44 71 -85 39 -41 56 -57 39 -35 -51 66 -110
131 -110 120z"></path>
<path d="M999 1003 c-13 -17 -13 -17 6 -3 11 8 22 16 24 17 2 2 0 3 -6 3 -6 0
-17 -8 -24 -17z"></path>
<path d="M6 958 c20 -64 25 -142 11 -188 -7 -21 -5 -20 9 5 20 36 20 122 -1
172 -16 37 -30 45 -19 11z"></path>
<path d="M944 943 c-15 -20 -23 -33 -16 -29 13 8 56 66 49 66 -3 0 -17 -17
-33 -37z"></path>
<path d="M2011 944 c0 -11 3 -14 6 -6 3 7 2 16 -1 19 -3 4 -6 -2 -5 -13z"></path>
<path d="M903 888 c-15 -20 -25 -38 -20 -38 3 0 12 11 21 25 17 26 16 35 -1
13z"></path>
<path d="M5140 865 c13 -14 26 -25 28 -25 3 0 -5 11 -18 25 -13 14 -26 25 -28
25 -3 0 5 -11 18 -25z"></path>
<path d="M2044 856 c10 -16 28 -45 39 -64 18 -31 22 -33 28 -16 11 28 10 34
-3 34 -7 0 -28 17 -47 38 -29 31 -32 32 -17 8z"></path>
<path d="M5210 827 c0 -12 64 -96 73 -97 5 0 -6 19 -24 43 -43 56 -49 62 -49
54z"></path>
<path d="M895 751 c-25 -38 -45 -73 -45 -77 0 -10 13 8 64 89 20 31 34 57 31
57 -3 0 -26 -31 -50 -69z"></path>
<path d="M971 815 c0 -9 22 -41 124 -175 22 -29 61 -74 88 -101 26 -27 47 -51
47 -54 0 -31 -200 -367 -262 -439 -24 -28 -36 -46 -28 -41 28 17 76 80 132
172 32 52 66 107 77 121 21 30 91 176 91 190 0 5 -21 31 -47 58 -40 40 -140
166 -208 259 -8 11 -14 16 -14 10z"></path>
<path d="M1967 791 c19 -27 193 -198 193 -189 0 3 -47 52 -105 110 -58 58 -97
93 -88 79z"></path>
<path d="M1980 715 c13 -14 26 -25 28 -25 3 0 -5 11 -18 25 -13 14 -26 25 -28
25 -3 0 5 -11 18 -25z"></path>
<path d="M4466 727 c3 -10 9 -15 12 -12 3 3 0 11 -7 18 -10 9 -11 8 -5 -6z"></path>
<path d="M0 723 c0 -19 35 -41 80 -52 100 -22 171 -34 176 -28 3 3 -28 10 -68
17 -90 15 -159 37 -175 58 -7 9 -13 11 -13 5z"></path>
<path d="M900 640 l-1 -65 -89 -90 c-49 -49 -92 -86 -96 -82 -4 4 12 25 35 47
23 22 39 40 34 40 -4 -1 -44 -35 -88 -76 -44 -41 -102 -89 -128 -107 -27 -17
-44 -33 -38 -35 11 -4 113 71 145 107 20 22 36 27 36 11 0 -12 -76 -83 -173
-160 -77 -62 -101 -88 -49 -55 55 36 150 122 283 255 l137 137 4 59 c2 32 1
63 -4 69 -4 5 -8 -20 -8 -55z"></path>
<path d="M484 655 c-25 -19 -14 -19 22 0 16 8 22 15 13 15 -8 0 -24 -7 -35
-15z"></path>
<path d="M2094 619 c26 -24 52 -52 56 -64 l9 -20 0 20 c1 13 -16 35 -41 56
-64 52 -80 58 -24 8z"></path>
<path d="M295 630 c34 -11 143 -16 152 -6 3 3 -18 6 -48 6 -30 0 -72 2 -94 5
-37 5 -38 4 -10 -5z"></path>
<path d="M1334 584 c-18 -14 -18 -15 4 -4 12 6 22 13 22 15 0 8 -5 6 -26 -11z"></path>
<path d="M805 559 c-4 -6 -5 -12 -2 -15 2 -3 7 2 10 11 7 17 1 20 -8 4z"></path>
<path d="M6525 430 c17 -4 39 -8 50 -8 16 0 15 2 -5 8 -14 4 -36 8 -50 8 -22
0 -22 -1 5 -8z"></path>
<path d="M6978 413 c7 -3 16 -2 19 1 4 3 -2 6 -13 5 -11 0 -14 -3 -6 -6z"></path>
<path d="M500 347 c-64 -35 -127 -70 -140 -80 -45 -31 -7 -18 59 22 36 21 96
55 134 75 37 20 67 39 67 41 0 7 3 9 -120 -58z"></path>
<path d="M2171 394 c0 -11 3 -14 6 -6 3 7 2 16 -1 19 -3 4 -6 -2 -5 -13z"></path>
<path d="M6814 324 c55 -42 79 -67 91 -96 9 -22 18 -38 21 -35 3 2 -3 23 -12
46 -13 34 -32 52 -90 92 -98 66 -103 62 -10 -7z"></path>
<path d="M245 235 c-22 -14 -35 -25 -30 -25 6 0 28 11 50 25 22 13 36 24 30
24 -5 0 -28 -11 -50 -24z"></path>
<path d="M4700 240 c6 -11 13 -20 16 -20 2 0 0 9 -6 20 -6 11 -13 20 -16 20
-2 0 0 -9 6 -20z"></path>
<path d="M280 225 c-25 -13 -41 -24 -37 -25 11 0 87 39 87 45 0 7 0 7 -50 -20z"></path>
<path d="M175 200 c-3 -6 1 -7 9 -4 18 7 21 14 7 14 -6 0 -13 -4 -16 -10z"></path>
<path d="M4746 179 c24 -34 114 -52 234 -47 l85 4 -98 2 c-115 2 -183 17 -216
46 l-24 21 19 -26z"></path>
<path d="M6944 161 c21 -23 26 -26 26 -11 0 5 -10 15 -22 21 -23 12 -23 12 -4
-10z"></path>
</g>
</svg>